<svg viewBox="0 0 1536 1024" xmlns="http://www.w3.org/2000/svg" preserveAspectRatio="xMidYMid meet">
  <g id="#5555fffb">
    <path fill="#5555ff" opacity="1.00" d=" M 730.06 90.05 C 731.55 90.35 733.04 90.66 734.55 90.98 C 734.15 92.73 733.75 94.47 733.34 96.22 C 732.41 96.10 730.55 95.87 729.62 95.75 C 729.75 93.85 729.90 91.95 730.06 90.05 Z" />
    <path fill="#5555ff" opacity="1.00" d=" M 737.17 91.07 C 738.55 90.97 739.94 90.87 741.34 90.78 C 741.23 92.49 741.12 94.21 741.02 95.92 C 739.75 95.90 738.50 95.88 737.25 95.85 C 737.21 94.26 737.19 92.66 737.17 91.07 Z" />
    <path fill="#5555ff" opacity="1.00" d=" M 744.30 91.01 C 745.76 91.02 747.23 91.03 748.70 91.03 C 748.68 92.72 748.66 94.41 748.66 96.10 C 747.18 96.16 745.71 96.21 744.26 96.25 C 744.26 94.50 744.28 92.76 744.30 91.01 Z" />
    <path fill="#5555ff" opacity="1.00" d=" M 751.62 90.93 C 752.58 90.94 754.51 90.95 755.47 90.96 C 755.37 92.89 755.26 94.81 755.14 96.74 C 754.31 96.75 752.65 96.77 751.82 96.78 C 751.74 94.83 751.67 92.88 751.62 90.93 Z" />
    <path fill="#5555ff" opacity="1.00" d=" M 758.04 91.07 C 759.32 91.05 760.60 91.04 761.90 91.02 C 761.88 92.94 761.86 94.86 761.85 96.78 C 760.52 96.78 759.19 96.78 757.88 96.78 C 757.91 94.88 757.97 92.97 758.04 91.07 Z" />
    <path fill="#5555ff" opacity="1.00" d=" M 764.15 91.36 C 765.54 91.21 766.95 91.06 768.36 90.92 C 768.26 92.90 768.15 94.87 768.03 96.85 C 766.77 96.76 765.52 96.67 764.28 96.58 C 764.23 94.84 764.18 93.10 764.15 91.36 Z" />
    <path fill="#5555ff" opacity="1.00" d=" M 771.40 91.15 C 772.85 91.17 774.31 91.18 775.79 91.20 C 775.68 93.04 775.58 94.87 775.48 96.70 C 773.91 96.56 772.35 96.42 770.80 96.26 C 770.99 94.56 771.19 92.86 771.40 91.15 Z" />
    <path fill="#5555ff" opacity="1.00" d=" M 34.08 120.08 C 44.30 107.31 60.24 100.24 76.24 98.39 C 90.76 96.78 105.68 97.95 119.62 102.40 C 132.94 106.90 145.28 114.08 156.22 122.85 C 148.56 134.99 141.27 147.38 133.10 159.18 C 126.44 154.19 119.63 149.28 111.85 146.19 C 107.55 144.19 102.75 143.55 98.51 141.44 C 97.61 139.71 97.98 137.63 97.76 135.75 C 110.21 137.30 121.62 143.31 131.85 150.30 C 137.36 141.77 142.61 133.08 148.21 124.60 C 141.03 118.77 132.72 114.48 124.29 110.77 C 108.23 104.07 90.32 103.14 73.23 105.45 C 56.34 107.87 40.53 118.52 32.96 133.97 C 27.82 143.81 26.69 155.43 28.93 166.23 C 30.94 175.40 36.01 183.78 42.79 190.23 C 47.54 194.76 53.33 198.01 59.24 200.78 C 73.70 207.52 89.28 211.47 103.70 218.30 C 108.88 220.77 113.98 224.02 117.12 228.97 C 120.72 234.32 121.03 241.90 117.26 247.26 C 111.85 254.94 102.06 258.09 93.02 258.32 C 79.83 258.59 66.64 255.18 55.07 248.89 C 49.59 246.04 44.74 242.17 39.53 238.88 C 34.59 247.15 29.16 255.10 23.89 263.17 C 33.75 271.65 45.17 278.39 57.55 282.45 C 68.60 286.18 80.34 287.65 91.98 287.31 C 103.59 287.32 115.37 285.17 125.74 279.79 C 139.74 272.61 150.45 258.88 153.09 243.27 C 154.39 234.42 153.80 225.10 150.16 216.84 C 145.79 206.34 137.12 198.15 127.32 192.67 C 114.53 185.32 100.19 181.52 86.33 176.76 C 81.02 174.92 75.64 173.10 70.74 170.30 C 66.58 167.90 62.91 164.15 61.69 159.39 C 60.40 153.92 61.53 147.66 65.58 143.58 C 71.20 137.76 79.40 135.63 87.20 134.86 C 87.42 136.75 87.61 138.64 87.77 140.53 C 81.77 141.99 74.89 142.59 70.44 147.41 C 66.84 150.97 66.72 157.25 69.98 161.06 C 72.53 164.09 76.29 165.66 79.84 167.17 C 93.38 172.61 107.66 176.01 121.00 181.98 C 132.22 186.85 143.15 193.56 150.28 203.74 C 162.10 220.05 163.20 243.03 153.87 260.75 C 147.13 274.04 134.55 283.69 120.77 288.85 C 99.15 296.76 74.94 295.23 53.46 287.62 C 39.40 282.50 26.58 274.23 15.69 263.99 C 23.42 252.66 30.50 240.92 38.24 229.61 C 42.46 232.74 46.33 236.34 50.71 239.27 C 63.19 247.47 78.04 252.58 93.09 252.03 C 98.93 251.89 105.12 250.56 109.60 246.57 C 113.72 242.92 114.54 236.17 111.22 231.72 C 107.16 226.01 100.22 223.57 94.01 220.97 C 79.71 215.04 64.38 211.68 50.71 204.25 C 38.14 197.49 27.82 186.02 23.69 172.24 C 18.48 154.55 22.25 134.33 34.08 120.08 Z" />
    <path fill="#5555ff" opacity="1.00" d=" M 774.21 101.22 C 775.46 100.54 776.83 100.08 778.18 99.58 C 778.15 101.78 778.06 103.98 777.95 106.18 C 776.09 105.75 774.25 105.29 772.42 104.81 C 772.97 103.59 773.49 102.36 774.21 101.22 Z" />
    <path fill="#5555ff" opacity="1.00" d=" M 506.96 102.96 C 515.96 102.44 524.98 102.75 534.00 102.71 C 541.96 102.78 549.93 102.50 557.89 102.91 C 561.62 119.63 566.05 136.18 570.12 152.82 C 573.77 167.77 577.61 182.67 581.32 197.61 C 582.80 203.56 583.75 209.65 585.71 215.48 C 587.15 212.86 588.33 210.11 589.15 207.24 C 593.71 190.96 598.89 174.87 603.79 158.69 C 606.45 150.16 608.83 141.53 612.14 133.22 C 625.34 133.10 638.54 133.29 651.73 133.43 C 654.16 139.93 655.84 146.68 657.91 153.30 C 662.29 167.57 666.82 181.78 671.16 196.05 C 672.73 201.33 673.97 206.73 676.11 211.83 C 678.29 207.65 679.37 203.05 680.56 198.52 C 685.92 179.47 690.69 160.26 696.14 141.23 C 699.71 128.49 702.41 115.53 706.01 102.80 C 715.00 102.60 724.00 102.73 732.99 102.86 C 740.02 102.98 747.07 102.66 754.09 103.28 C 753.54 110.20 751.46 116.86 749.63 123.52 C 737.78 167.08 725.59 210.54 714.08 254.19 C 710.55 267.02 707.69 280.02 703.86 292.77 C 687.62 293.03 671.38 293.06 655.15 292.77 C 652.25 284.44 650.05 275.89 647.46 267.46 C 643.81 255.43 640.09 243.42 636.37 231.41 C 634.59 225.74 633.13 219.96 630.87 214.45 C 630.07 216.43 629.30 218.42 628.67 220.46 C 621.68 244.60 614.31 268.64 606.82 292.63 C 598.20 292.91 589.60 292.22 580.99 292.37 C 573.09 292.24 565.18 292.75 557.29 292.16 C 555.46 284.01 553.01 276.02 551.02 267.91 C 541.81 233.19 532.61 198.47 523.33 163.76 C 518.00 143.46 512.25 123.28 506.96 102.96 M 514.91 109.15 C 516.59 116.25 518.76 123.21 520.68 130.24 C 529.53 162.83 538.32 195.43 546.87 228.09 C 549.91 239.74 553.28 251.29 556.10 263.00 C 558.21 270.68 560.39 278.34 562.14 286.12 C 575.67 285.93 589.21 286.06 602.74 285.96 C 611.00 258.28 619.54 230.69 627.77 203.01 C 628.40 200.39 629.82 198.07 631.79 196.24 C 634.67 203.10 636.20 210.42 638.60 217.45 C 645.50 240.52 653.31 263.33 659.51 286.60 C 672.84 286.48 686.16 286.46 699.49 286.58 C 704.79 267.94 709.43 249.13 714.51 230.43 C 719.48 211.50 724.97 192.71 729.73 173.73 C 735.69 152.43 740.78 130.90 746.70 109.59 C 734.79 108.98 722.84 109.18 710.92 109.04 C 701.68 143.36 692.91 177.82 683.24 212.03 C 681.43 218.91 679.91 225.95 676.66 232.34 C 674.47 227.85 673.13 223.03 671.74 218.25 C 663.82 192.12 656.09 165.92 647.79 139.91 C 637.24 139.65 626.68 139.37 616.12 139.16 C 608.05 165.43 600.14 191.75 592.03 218.01 C 589.92 224.21 588.60 230.71 585.60 236.58 C 583.19 232.86 582.55 228.44 581.61 224.21 C 572.09 185.85 562.27 147.56 553.00 109.13 C 540.31 109.03 527.60 108.93 514.91 109.15 Z" />
    <path fill="#5555ff" opacity="1.00" d=" M 681.22 103.07 C 684.93 102.94 688.65 102.87 692.38 102.78 C 692.72 107.06 692.75 111.37 692.66 115.66 C 688.80 115.85 684.94 115.91 681.08 115.86 C 680.95 111.60 681.00 107.33 681.22 103.07 M 683.98 105.98 C 684.03 108.26 684.09 110.55 684.18 112.83 C 685.95 112.71 687.73 112.58 689.51 112.47 C 689.62 110.39 689.73 108.30 689.84 106.23 C 687.88 106.13 685.93 106.05 683.98 105.98 Z" />
    <path fill="#5555ff" opacity="1.00" d=" M 932.95 103.06 C 941.96 102.68 950.98 102.92 960.00 102.86 C 969.28 102.91 978.57 102.64 987.85 102.90 C 994.57 113.83 1001.87 124.39 1008.76 135.22 C 1013.78 142.74 1018.12 150.70 1023.44 158.02 C 1026.73 151.62 1030.75 145.65 1034.59 139.58 C 1042.37 127.13 1050.59 114.97 1058.83 102.82 C 1069.89 102.83 1080.94 102.78 1092.00 102.86 C 1099.51 102.95 1107.04 102.38 1114.54 103.12 C 1111.98 107.57 1108.48 111.33 1105.46 115.45 C 1094.07 131.13 1082.60 146.77 1072.00 163.01 C 1069.62 166.17 1067.66 170.13 1064.05 171.99 C 1062.71 171.22 1061.58 170.17 1060.43 169.17 C 1064.74 161.98 1069.44 155.04 1073.95 147.97 C 1082.33 134.61 1092.44 122.43 1101.27 109.37 C 1088.57 109.36 1075.88 109.19 1063.19 109.28 C 1057.45 118.14 1051.48 126.83 1045.68 135.65 C 1038.15 146.86 1030.31 157.87 1023.40 169.49 C 1018.73 164.64 1015.73 158.54 1011.96 153.02 C 1002.24 138.44 992.59 123.82 982.75 109.32 C 970.15 109.15 957.53 108.96 944.93 109.35 C 952.99 121.24 961.06 133.12 968.89 145.15 C 977.93 157.87 986.23 171.09 995.14 183.91 C 998.36 188.55 1002.61 192.83 1003.47 198.67 C 1000.72 197.57 998.03 196.23 995.84 194.21 C 989.76 188.80 985.28 181.92 980.74 175.23 C 968.32 156.64 955.91 138.06 943.54 119.43 C 939.97 114.00 936.27 108.65 932.95 103.06 Z" />
  </g>
</svg>
