<?xml version="1.0" encoding="UTF-8" ?>
<!DOCTYPE svg PUBLIC "-//W3C//DTD SVG 1.1//EN" "http://www.w3.org/Graphics/SVG/1.1/DTD/svg11.dtd">
<svg width="1120pt" height="360pt" viewBox="0 0 1120 360" version="1.1" xmlns="http://www.w3.org/2000/svg">
<g id="#5555fffb">
<path fill="#5555ff" opacity="1.00" d=" M 730.06 90.05 C 731.55 90.35 733.04 90.66 734.55 90.98 C 734.15 92.73 733.75 94.47 733.34 96.22 C 732.41 96.10 730.55 95.87 729.62 95.75 C 729.75 93.85 729.90 91.95 730.06 90.05 Z" />
<path fill="#5555ff" opacity="1.00" d=" M 737.17 91.07 C 738.55 90.97 739.94 90.87 741.34 90.78 C 741.23 92.49 741.12 94.21 741.02 95.92 C 739.75 95.90 738.50 95.88 737.25 95.85 C 737.21 94.26 737.19 92.66 737.17 91.07 Z" />
<path fill="#5555ff" opacity="1.00" d=" M 744.30 91.01 C 745.76 91.02 747.23 91.03 748.70 91.03 C 748.68 92.72 748.66 94.41 748.66 96.10 C 747.18 96.16 745.71 96.21 744.26 96.25 C 744.26 94.50 744.28 92.76 744.30 91.01 Z" />
<path fill="#5555ff" opacity="1.00" d=" M 751.62 90.93 C 752.58 90.94 754.51 90.95 755.47 90.96 C 755.37 92.89 755.26 94.81 755.14 96.74 C 754.31 96.75 752.65 96.77 751.82 96.78 C 751.74 94.83 751.67 92.88 751.62 90.93 Z" />
<path fill="#5555ff" opacity="1.00" d=" M 758.04 91.07 C 759.32 91.05 760.60 91.04 761.90 91.02 C 761.88 92.94 761.86 94.86 761.85 96.78 C 760.52 96.78 759.19 96.78 757.88 96.78 C 757.91 94.88 757.97 92.97 758.04 91.07 Z" />
<path fill="#5555ff" opacity="1.00" d=" M 764.15 91.36 C 765.54 91.21 766.95 91.06 768.36 90.92 C 768.26 92.90 768.15 94.87 768.03 96.85 C 766.77 96.76 765.52 96.67 764.28 96.58 C 764.23 94.84 764.18 93.10 764.15 91.36 Z" />
<path fill="#5555ff" opacity="1.00" d=" M 771.40 91.15 C 772.85 91.17 774.31 91.18 775.79 91.20 C 775.68 93.04 775.58 94.87 775.48 96.70 C 773.91 96.56 772.35 96.42 770.80 96.26 C 770.99 94.56 771.19 92.86 771.40 91.15 Z" />
<path fill="#5555ff" opacity="1.00" d=" M 34.08 120.08 C 44.30 107.31 60.24 100.24 76.24 98.39 C 90.76 96.78 105.68 97.95 119.62 102.40 C 132.94 106.90 145.28 114.08 156.22 122.85 C 148.56 134.99 141.27 147.38 133.10 159.18 C 126.44 154.19 119.63 149.28 111.85 146.19 C 107.55 144.19 102.75 143.55 98.51 141.44 C 97.61 139.71 97.98 137.63 97.76 135.75 C 110.21 137.30 121.62 143.31 131.85 150.30 C 137.36 141.77 142.61 133.08 148.21 124.60 C 141.03 118.77 132.72 114.48 124.29 110.77 C 108.23 104.07 90.32 103.14 73.23 105.45 C 56.34 107.87 40.53 118.52 32.96 133.97 C 27.82 143.81 26.69 155.43 28.93 166.23 C 30.94 175.40 36.01 183.78 42.79 190.23 C 47.54 194.76 53.33 198.01 59.24 200.78 C 73.70 207.52 89.28 211.47 103.70 218.30 C 108.88 220.77 113.98 224.02 117.12 228.97 C 120.72 234.32 121.03 241.90 117.26 247.26 C 111.85 254.94 102.06 258.09 93.02 258.32 C 79.83 258.59 66.64 255.18 55.07 248.89 C 49.59 246.04 44.74 242.17 39.53 238.88 C 34.59 247.15 29.16 255.10 23.89 263.17 C 33.75 271.65 45.17 278.39 57.55 282.45 C 68.60 286.18 80.34 287.65 91.98 287.31 C 103.59 287.32 115.37 285.17 125.74 279.79 C 139.74 272.61 150.45 258.88 153.09 243.27 C 154.39 234.42 153.80 225.10 150.16 216.84 C 145.79 206.34 137.12 198.15 127.32 192.67 C 114.53 185.32 100.19 181.52 86.33 176.76 C 81.02 174.92 75.64 173.10 70.74 170.30 C 66.58 167.90 62.91 164.15 61.69 159.39 C 60.40 153.92 61.53 147.66 65.58 143.58 C 71.20 137.76 79.40 135.63 87.20 134.86 C 87.42 136.75 87.61 138.64 87.77 140.53 C 81.77 141.99 74.89 142.59 70.44 147.41 C 66.84 150.97 66.72 157.25 69.98 161.06 C 72.53 164.09 76.29 165.66 79.84 167.17 C 93.38 172.61 107.66 176.01 121.00 181.98 C 132.22 186.85 143.15 193.56 150.28 203.74 C 162.10 220.05 163.20 243.03 153.87 260.75 C 147.13 274.04 134.55 283.69 120.77 288.85 C 99.15 296.76 74.94 295.23 53.46 287.62 C 39.40 282.50 26.58 274.23 15.69 263.99 C 23.42 252.66 30.50 240.92 38.24 229.61 C 42.46 232.74 46.33 236.34 50.71 239.27 C 63.19 247.47 78.04 252.58 93.09 252.03 C 98.93 251.89 105.12 250.56 109.60 246.57 C 113.72 242.92 114.54 236.17 111.22 231.72 C 107.16 226.01 100.22 223.57 94.01 220.97 C 79.71 215.04 64.38 211.68 50.71 204.25 C 38.14 197.49 27.82 186.02 23.69 172.24 C 18.48 154.55 22.25 134.33 34.08 120.08 Z" />
<path fill="#5555ff" opacity="1.00" d=" M 774.21 101.22 C 775.46 100.54 776.83 100.08 778.18 99.58 C 778.15 101.78 778.06 103.98 777.95 106.18 C 776.09 105.75 774.25 105.29 772.42 104.81 C 772.97 103.59 773.49 102.36 774.21 101.22 Z" />
<path fill="#5555ff" opacity="1.00" d=" M 506.96 102.96 C 515.96 102.44 524.98 102.75 534.00 102.71 C 541.96 102.78 549.93 102.50 557.89 102.91 C 561.62 119.63 566.05 136.18 570.12 152.82 C 573.77 167.77 577.61 182.67 581.32 197.61 C 582.80 203.56 583.75 209.65 585.71 215.48 C 587.15 212.86 588.33 210.11 589.15 207.24 C 593.71 190.96 598.89 174.87 603.79 158.69 C 606.45 150.16 608.83 141.53 612.14 133.22 C 625.34 133.10 638.54 133.29 651.73 133.43 C 654.16 139.93 655.84 146.68 657.91 153.30 C 662.29 167.57 666.82 181.78 671.16 196.05 C 672.73 201.33 673.97 206.73 676.11 211.83 C 678.29 207.65 679.37 203.05 680.56 198.52 C 685.92 179.47 690.69 160.26 696.14 141.23 C 699.71 128.49 702.41 115.53 706.01 102.80 C 715.00 102.60 724.00 102.73 732.99 102.86 C 740.02 102.98 747.07 102.66 754.09 103.28 C 753.54 110.20 751.46 116.86 749.63 123.52 C 737.78 167.08 725.59 210.54 714.08 254.19 C 710.55 267.02 707.69 280.02 703.86 292.77 C 687.62 293.03 671.38 293.06 655.15 292.77 C 652.25 284.44 650.05 275.89 647.46 267.46 C 643.81 255.43 640.09 243.42 636.37 231.41 C 634.59 225.74 633.13 219.96 630.87 214.45 C 630.07 216.43 629.30 218.42 628.67 220.46 C 621.68 244.60 614.31 268.64 606.82 292.63 C 598.20 292.91 589.60 292.22 580.99 292.37 C 573.09 292.24 565.18 292.75 557.29 292.16 C 555.46 284.01 553.01 276.02 551.02 267.91 C 541.81 233.19 532.61 198.47 523.33 163.76 C 518.00 143.46 512.25 123.28 506.96 102.96 M 514.91 109.15 C 516.59 116.25 518.76 123.21 520.68 130.24 C 529.53 162.83 538.32 195.43 546.87 228.09 C 549.91 239.74 553.28 251.29 556.10 263.00 C 558.21 270.68 560.39 278.34 562.14 286.12 C 575.67 285.93 589.21 286.06 602.74 285.96 C 611.00 258.28 619.54 230.69 627.77 203.01 C 628.40 200.39 629.82 198.07 631.79 196.24 C 634.67 203.10 636.20 210.42 638.60 217.45 C 645.50 240.52 653.31 263.33 659.51 286.60 C 672.84 286.48 686.16 286.46 699.49 286.58 C 704.79 267.94 709.43 249.13 714.51 230.43 C 719.48 211.50 724.97 192.71 729.73 173.73 C 735.69 152.43 740.78 130.90 746.70 109.59 C 734.79 108.98 722.84 109.18 710.92 109.04 C 701.68 143.36 692.91 177.82 683.24 212.03 C 681.43 218.91 679.91 225.95 676.66 232.34 C 674.47 227.85 673.13 223.03 671.74 218.25 C 663.82 192.12 656.09 165.92 647.79 139.91 C 637.24 139.65 626.68 139.37 616.12 139.16 C 608.05 165.43 600.14 191.75 592.03 218.01 C 589.92 224.21 588.60 230.71 585.60 236.58 C 583.19 232.86 582.55 228.44 581.61 224.21 C 572.09 185.85 562.27 147.56 553.00 109.13 C 540.31 109.03 527.60 108.93 514.91 109.15 Z" />
<path fill="#5555ff" opacity="1.00" d=" M 681.22 103.07 C 684.93 102.94 688.65 102.87 692.38 102.78 C 692.72 107.06 692.75 111.37 692.66 115.66 C 688.80 115.85 684.94 115.91 681.08 115.86 C 680.95 111.60 681.00 107.33 681.22 103.07 M 683.98 105.98 C 684.03 108.26 684.09 110.55 684.18 112.83 C 685.95 112.71 687.73 112.58 689.51 112.47 C 689.62 110.39 689.73 108.30 689.84 106.23 C 687.88 106.13 685.93 106.05 683.98 105.98 Z" />
<path fill="#5555ff" opacity="1.00" d=" M 932.95 103.06 C 941.96 102.68 950.98 102.92 960.00 102.86 C 969.28 102.91 978.57 102.64 987.85 102.90 C 994.57 113.83 1001.87 124.39 1008.76 135.22 C 1013.78 142.74 1018.12 150.70 1023.44 158.02 C 1026.73 151.62 1030.75 145.65 1034.59 139.58 C 1042.37 127.13 1050.59 114.97 1058.83 102.82 C 1069.89 102.83 1080.94 102.78 1092.00 102.86 C 1099.51 102.95 1107.04 102.38 1114.54 103.12 C 1111.98 107.57 1108.48 111.33 1105.46 115.45 C 1094.07 131.13 1082.60 146.77 1072.00 163.01 C 1069.62 166.17 1067.66 170.13 1064.05 171.99 C 1062.71 171.22 1061.58 170.17 1060.43 169.17 C 1064.74 161.98 1069.44 155.04 1073.95 147.97 C 1082.33 134.61 1092.44 122.43 1101.27 109.37 C 1088.57 109.36 1075.88 109.19 1063.19 109.28 C 1057.45 118.14 1051.48 126.83 1045.68 135.65 C 1038.15 146.86 1030.31 157.87 1023.40 169.49 C 1018.73 164.64 1015.73 158.54 1011.96 153.02 C 1002.24 138.44 992.59 123.82 982.75 109.32 C 970.15 109.15 957.53 108.96 944.93 109.35 C 952.99 121.24 961.06 133.12 968.89 145.15 C 977.93 157.87 986.23 171.09 995.14 183.91 C 998.36 188.55 1002.61 192.83 1003.47 198.67 C 1000.72 197.57 998.03 196.23 995.84 194.21 C 989.76 188.80 985.28 181.92 980.74 175.23 C 968.32 156.64 955.91 138.06 943.54 119.43 C 939.97 114.00 936.27 108.65 932.95 103.06 Z" />
<path fill="#5555ff" opacity="1.00" d=" M 58.94 114.90 C 67.30 110.79 76.68 109.38 85.92 109.48 C 95.70 109.00 105.54 110.24 114.87 113.19 C 117.62 114.12 120.45 115.38 122.23 117.78 C 124.15 120.30 124.22 123.95 122.70 126.67 C 121.57 128.38 119.89 129.62 118.37 130.96 C 119.48 132.64 121.65 134.33 120.83 136.59 C 120.13 138.99 117.32 139.37 115.20 139.05 C 114.10 137.54 113.35 135.82 112.56 134.14 C 106.95 131.84 101.11 130.16 95.21 128.76 C 94.94 138.58 94.82 148.41 95.10 158.23 C 97.75 155.41 100.34 152.54 103.02 149.75 C 103.88 150.79 104.73 151.85 105.59 152.90 C 101.18 157.44 97.47 162.70 92.31 166.44 C 88.32 161.93 84.37 157.39 80.35 152.92 C 81.24 152.02 82.13 151.13 83.02 150.25 C 85.63 152.84 88.18 155.48 90.79 158.07 C 90.49 147.55 91.44 136.95 90.03 126.49 C 88.92 128.10 87.86 129.74 86.80 131.38 C 84.30 131.23 81.82 130.77 79.49 129.82 C 72.05 130.60 64.87 134.33 60.16 140.17 C 53.04 148.93 53.64 163.24 62.01 170.98 C 65.93 174.72 70.86 177.17 75.88 179.07 C 87.39 183.34 99.24 186.66 110.60 191.35 C 120.92 195.48 131.23 200.83 138.42 209.54 C 150.03 223.71 150.49 245.79 139.31 260.34 C 133.24 268.06 125.40 274.62 116.17 278.19 C 100.03 284.95 81.66 284.73 64.97 280.14 C 59.71 278.62 54.26 277.29 49.55 274.42 C 47.13 273.13 46.72 270.26 46.05 267.88 C 48.82 270.86 51.43 274.32 55.52 275.52 C 67.41 279.74 80.04 282.24 92.69 281.69 C 92.84 280.54 93.00 279.39 93.16 278.24 C 93.72 278.29 94.84 278.37 95.41 278.42 C 95.57 279.15 95.90 280.61 96.06 281.35 C 102.70 280.41 109.38 279.24 115.56 276.52 C 127.49 271.42 138.03 262.10 142.86 249.87 C 147.81 237.77 146.20 223.13 138.42 212.58 C 133.84 206.45 127.62 201.72 120.94 198.08 C 106.53 190.30 90.47 186.58 75.27 180.77 C 69.38 178.47 63.36 175.69 59.23 170.73 C 56.20 167.27 54.68 162.85 53.24 158.56 C 52.17 157.84 51.09 157.12 50.02 156.41 C 51.16 156.21 52.30 156.02 53.45 155.82 C 53.37 150.72 54.16 145.43 57.16 141.17 C 62.10 133.38 71.04 129.38 79.79 127.63 C 80.18 126.41 80.56 125.20 80.94 123.99 C 83.00 123.98 85.06 123.96 87.13 123.95 C 87.80 124.64 88.48 125.34 89.16 126.04 C 97.62 127.10 105.87 129.42 113.75 132.68 C 116.04 130.67 118.54 128.87 120.49 126.51 C 122.69 123.92 122.30 119.52 119.51 117.49 C 117.21 115.80 114.42 114.97 111.72 114.15 C 100.11 110.93 87.85 110.42 75.92 111.95 C 66.04 113.27 56.44 117.30 48.89 123.86 C 46.28 125.94 45.03 129.31 42.04 130.92 C 42.44 131.94 42.85 132.96 43.25 133.98 C 42.44 133.96 40.82 133.94 40.01 133.93 C 38.12 138.56 36.11 143.23 35.51 148.25 C 34.87 153.75 34.92 159.40 36.15 164.83 C 38.81 176.33 47.00 186.17 57.44 191.53 C 71.57 198.98 87.07 203.22 101.86 209.11 C 104.98 210.41 108.31 211.11 111.65 211.57 C 111.77 212.09 112.01 213.12 112.13 213.64 C 116.09 215.91 120.08 218.44 122.72 222.27 C 127.73 228.90 128.34 238.07 125.65 245.76 C 123.15 252.30 117.67 257.31 111.59 260.53 C 104.36 264.37 95.98 265.01 87.95 264.97 C 81.35 264.95 74.82 263.55 68.60 261.40 C 64.03 259.80 59.25 258.28 55.58 254.97 C 58.75 255.66 61.79 256.84 64.76 258.13 C 71.18 260.88 78.00 262.84 85.00 263.38 C 92.05 263.99 99.09 262.58 105.87 260.75 C 113.40 258.37 120.63 253.26 123.70 245.76 C 126.05 239.46 125.94 232.12 122.97 226.04 C 120.59 221.21 116.05 218.05 111.87 214.90 C 111.06 215.10 110.24 215.29 109.42 215.49 C 107.30 213.47 104.87 211.77 102.05 210.89 C 91.24 207.20 80.57 203.08 69.85 199.12 C 60.91 195.32 51.49 191.51 44.73 184.25 C 33.84 172.80 30.37 155.28 35.41 140.40 C 39.26 129.10 48.40 120.15 58.94 114.90 M 82.30 125.16 C 82.25 126.71 82.21 128.27 82.16 129.82 C 83.49 129.90 84.82 129.98 86.14 130.06 C 86.32 128.57 86.49 127.08 86.66 125.59 C 85.21 125.44 83.75 125.30 82.30 125.16 M 115.15 133.36 C 115.21 134.92 115.28 136.48 115.36 138.04 C 116.82 137.48 118.28 136.91 119.73 136.34 C 119.14 135.14 118.56 133.94 117.97 132.75 C 117.27 132.90 115.86 133.20 115.15 133.36 Z" />
<path fill="#5555ff" opacity="1.00" d=" M 771.20 108.74 C 772.84 108.80 774.49 108.88 776.15 108.97 C 775.80 110.75 775.44 112.53 775.08 114.31 C 773.64 113.94 772.22 113.56 770.80 113.19 C 770.93 111.70 771.06 110.22 771.20 108.74 Z" />
<path fill="#5555ff" opacity="1.00" d=" M 970.28 114.59 C 971.21 113.60 972.14 112.59 973.23 111.74 C 974.92 111.69 976.57 112.22 978.23 112.58 C 978.03 114.07 977.85 115.55 977.69 117.04 C 975.92 117.29 974.15 117.55 972.39 117.79 C 974.09 116.83 975.82 115.92 977.54 114.96 C 975.14 114.55 972.69 114.58 970.28 114.59 Z" />
<path fill="#5555ff" opacity="1.00" d=" M 182.86 114.08 C 197.23 113.97 211.61 113.99 225.99 113.90 C 226.08 124.98 226.51 136.05 226.25 147.13 C 235.78 147.40 245.30 146.89 254.82 147.17 C 255.36 159.69 255.47 172.24 254.90 184.75 C 245.35 185.01 235.81 184.61 226.27 184.99 C 226.56 203.31 226.37 221.64 226.44 239.96 C 226.23 245.22 229.20 250.93 234.57 252.33 C 242.05 254.60 249.29 250.69 255.94 247.73 C 259.13 260.01 262.51 272.27 265.02 284.71 C 252.08 291.92 236.80 295.07 222.12 292.76 C 208.92 290.66 196.77 282.63 189.80 271.20 C 184.17 262.24 182.27 251.44 182.38 241.00 C 182.49 225.91 182.33 210.82 182.48 195.74 L 183.15 196.35 C 182.49 192.69 182.37 188.96 182.58 185.25 C 175.95 185.35 169.31 185.36 162.68 185.14 C 161.78 172.50 162.34 159.80 162.93 147.16 C 169.51 146.56 176.13 146.51 182.74 146.72 C 182.71 135.84 182.55 124.96 182.86 114.08 M 189.13 120.35 C 188.78 131.18 189.35 142.02 188.81 152.85 C 182.26 153.56 175.67 153.47 169.10 153.23 C 168.91 161.72 168.82 170.21 169.13 178.70 C 175.64 178.45 182.17 178.37 188.67 179.00 C 188.50 193.00 189.13 206.99 189.01 220.99 C 189.02 231.58 188.23 242.23 189.57 252.77 C 191.43 265.73 199.88 277.71 212.01 282.96 C 226.69 289.20 243.91 287.60 258.17 280.94 C 255.89 273.01 254.35 264.89 252.00 256.98 C 246.00 258.78 239.60 260.49 233.35 258.87 C 226.23 257.37 220.94 250.66 220.36 243.52 C 219.63 235.71 220.27 227.84 220.04 220.01 C 220.10 206.24 219.41 192.47 220.01 178.71 C 229.58 178.45 239.17 178.54 248.75 178.68 C 248.94 170.47 248.84 162.25 248.91 154.03 C 239.35 153.88 229.77 154.27 220.22 153.75 C 219.34 142.60 220.14 131.43 219.91 120.27 C 209.65 120.41 199.39 120.49 189.13 120.35 Z" />
<path fill="#5555ff" opacity="1.00" d=" M 1081.00 114.94 C 1082.87 113.70 1085.95 113.61 1087.33 115.65 C 1088.30 117.61 1088.58 119.82 1089.07 121.95 C 1087.31 119.54 1085.59 117.10 1083.80 114.73 C 1082.52 115.80 1081.26 116.89 1080.02 117.99 C 1080.28 118.50 1080.81 119.53 1081.07 120.04 C 1082.58 119.87 1084.09 119.71 1085.63 119.57 C 1084.66 120.35 1083.74 121.17 1082.71 121.84 C 1080.83 121.90 1079.25 120.49 1077.58 119.81 C 1078.62 118.14 1079.42 116.21 1081.00 114.94 Z" />
<path fill="#5555ff" opacity="1.00" d=" M 430.38 115.38 C 445.18 115.17 460.00 115.22 474.81 115.25 C 475.32 126.13 474.82 137.01 475.10 147.89 C 484.33 148.03 493.57 147.70 502.81 148.09 C 502.81 160.60 503.17 173.12 502.62 185.63 C 493.36 186.24 484.08 185.86 474.82 185.84 C 474.56 202.90 474.73 219.96 474.58 237.01 C 474.63 240.82 474.56 244.94 476.75 248.25 C 479.23 252.26 484.24 254.03 488.81 253.61 C 493.93 253.14 498.55 250.67 503.26 248.81 C 506.98 260.84 509.62 273.18 512.77 285.37 C 507.53 289.37 501.12 291.26 494.87 292.99 C 479.56 297.00 462.33 294.96 449.24 285.76 C 440.82 280.15 435.04 271.23 432.22 261.62 C 429.56 253.01 429.67 243.91 429.67 235.00 C 429.74 218.65 429.64 202.30 429.82 185.95 C 422.39 185.56 414.88 186.68 407.51 185.46 C 406.23 183.96 406.07 181.91 405.97 180.04 C 405.81 176.36 405.96 172.68 405.96 169.00 C 406.05 161.95 405.46 154.83 406.76 147.85 C 414.46 147.79 422.16 147.93 429.86 147.96 C 430.17 137.10 429.78 126.23 430.38 115.38 M 436.10 121.17 C 435.82 132.15 436.26 143.14 435.79 154.11 C 427.84 154.64 419.88 154.18 411.92 154.25 C 411.98 162.75 411.99 171.25 412.20 179.74 C 419.88 179.60 427.55 178.98 435.23 179.20 C 435.44 182.34 436.15 185.48 435.56 188.62 C 434.97 188.58 433.79 188.50 433.19 188.46 C 434.01 188.80 434.82 189.19 435.63 189.61 C 435.80 197.94 435.46 206.28 435.80 214.61 C 436.28 225.76 435.78 236.92 436.05 248.08 C 436.38 259.62 441.37 271.22 450.40 278.61 C 459.18 285.76 470.82 288.92 482.04 288.22 C 490.33 287.95 498.31 285.45 506.03 282.60 C 504.07 274.28 502.00 265.98 499.92 257.69 C 494.47 259.01 488.86 260.68 483.21 259.67 C 476.46 258.70 470.77 253.22 469.16 246.65 C 468.51 243.82 468.50 240.89 468.49 238.00 C 468.70 218.56 468.24 199.11 469.02 179.68 C 478.31 179.53 487.61 179.59 496.90 179.74 C 497.06 171.41 496.98 163.09 496.99 154.76 C 487.69 154.52 478.38 154.64 469.07 154.73 C 468.66 143.55 468.65 132.36 468.94 121.18 C 457.99 121.06 447.05 121.10 436.10 121.17 Z" />
<path fill="#5555ff" opacity="1.00" d=" M 73.29 117.33 C 84.08 115.29 95.12 116.55 105.90 117.98 C 105.90 118.54 105.91 119.66 105.91 120.22 C 96.54 117.80 86.72 116.96 77.11 118.20 C 67.79 119.94 58.52 123.89 52.06 131.03 C 42.97 140.70 40.68 155.38 44.20 167.88 C 47.04 176.14 53.55 182.82 61.32 186.64 C 68.65 190.27 76.31 193.16 83.94 196.05 C 84.78 195.76 85.62 195.47 86.46 195.18 C 87.55 196.84 88.39 198.79 90.07 199.96 C 91.96 200.84 94.12 200.38 96.14 200.40 C 96.29 198.79 96.45 197.18 96.60 195.57 C 84.20 191.77 71.43 188.49 60.19 181.80 C 54.18 178.20 49.27 172.51 47.36 165.69 C 44.16 154.27 47.13 141.07 55.68 132.68 C 58.94 129.56 62.64 126.95 65.96 123.88 C 66.69 124.91 67.42 125.93 68.15 126.96 C 65.13 128.19 61.99 129.32 59.44 131.43 C 48.06 140.43 44.43 157.86 51.38 170.62 C 54.90 176.74 60.94 180.94 67.29 183.72 C 74.95 187.08 82.86 189.84 90.90 192.12 C 93.34 192.92 95.95 193.63 97.90 195.41 C 99.09 197.95 97.15 200.35 96.19 202.60 C 93.28 202.31 90.25 201.94 87.85 200.11 C 82.65 196.39 76.35 194.96 70.55 192.50 C 65.48 190.39 60.39 188.20 55.79 185.17 C 47.03 179.52 41.50 169.39 41.01 159.04 C 40.52 150.90 42.33 142.56 46.50 135.54 C 52.33 126.01 62.56 119.81 73.29 117.33 Z" />
<path fill="#5555ff" opacity="1.00" d=" M 963.03 115.28 C 965.60 116.46 965.94 119.28 966.33 121.77 C 964.41 122.92 962.51 124.08 960.61 125.25 C 959.76 123.61 958.49 122.05 958.31 120.16 C 958.79 118.82 959.65 117.66 960.42 116.47 C 960.30 118.27 960.14 120.08 959.99 121.88 C 960.50 122.33 961.53 123.22 962.05 123.67 C 963.12 122.44 964.20 121.21 965.29 119.97 C 964.50 118.42 963.73 116.86 963.03 115.28 Z" />
<path fill="#5555ff" opacity="1.00" d=" M 768.75 116.54 C 770.55 116.66 772.37 116.79 774.20 116.93 C 773.74 118.60 773.28 120.28 772.82 121.95 C 771.38 121.40 769.94 120.85 768.50 120.30 C 768.56 119.36 768.69 117.48 768.75 116.54 Z" />
<path fill="#5555ff" opacity="1.00" d=" M 546.22 117.27 C 547.18 117.92 548.13 118.61 549.07 119.33 C 548.67 122.10 547.29 124.57 546.12 127.07 C 543.77 131.74 541.72 136.54 539.58 141.31 C 533.73 140.29 529.67 135.35 527.26 130.25 C 528.27 130.03 530.29 129.58 531.30 129.36 C 533.25 131.65 535.21 133.92 537.20 136.18 C 540.11 129.84 542.90 123.42 546.22 117.27 Z" />
<path fill="#5555ff" opacity="1.00" d=" M 108.67 118.71 C 110.18 118.76 111.70 118.83 113.21 118.90 C 113.14 120.21 113.07 121.53 113.00 122.84 C 111.64 122.85 110.29 122.85 108.93 122.85 C 108.84 121.47 108.75 120.09 108.67 118.71 Z" />
<path fill="#5555ff" opacity="1.00" d=" M 1059.74 123.19 C 1060.69 120.13 1063.93 119.47 1066.63 118.67 C 1067.31 120.50 1068.01 122.33 1068.70 124.16 C 1067.49 125.46 1066.28 126.75 1065.07 128.05 C 1063.32 126.39 1061.55 124.76 1059.74 123.19 M 1063.15 121.06 C 1062.96 122.39 1062.79 123.71 1062.63 125.04 C 1063.80 125.34 1064.99 125.64 1066.19 125.94 C 1066.34 124.43 1066.50 122.91 1066.68 121.40 C 1065.49 121.29 1064.31 121.17 1063.15 121.06 Z" />
<path fill="#5555ff" opacity="1.00" d=" M 976.54 124.29 C 978.76 122.37 981.20 120.71 983.87 119.46 C 984.85 121.85 985.72 124.28 986.43 126.78 C 984.83 127.95 983.24 129.13 981.66 130.31 C 979.80 128.44 978.08 126.43 976.54 124.29 M 979.79 123.01 C 979.83 124.40 979.88 125.80 979.94 127.19 C 981.40 127.13 982.86 127.07 984.34 127.00 C 983.97 125.22 983.62 123.45 983.25 121.68 C 982.08 122.12 980.93 122.56 979.79 123.01 Z" />
<path fill="#5555ff" opacity="1.00" d=" M 792.89 139.19 C 805.97 128.17 822.84 121.51 839.95 120.87 C 840.61 133.72 841.55 146.57 841.76 159.44 C 833.23 160.86 824.97 164.17 818.39 169.87 C 815.79 167.02 813.42 163.98 811.06 160.94 C 805.22 153.51 798.54 146.78 792.89 139.19 M 831.33 128.16 C 831.48 137.09 831.17 146.02 831.20 154.95 C 832.45 154.94 833.70 154.94 834.97 154.93 C 835.16 145.98 834.80 137.03 834.11 128.10 C 833.41 128.12 832.02 128.15 831.33 128.16 M 825.30 129.25 C 825.43 138.82 825.24 148.39 825.32 157.97 C 826.53 157.64 827.75 157.32 828.98 157.00 C 828.98 147.69 829.08 138.37 828.88 129.05 C 827.68 129.12 826.48 129.18 825.30 129.25 M 819.48 131.47 C 819.30 141.31 819.13 151.16 819.45 161.00 C 820.53 160.64 821.63 160.28 822.73 159.92 C 822.73 149.99 822.52 140.06 822.77 130.13 C 821.66 130.57 820.57 131.02 819.48 131.47 M 814.11 133.05 C 814.13 139.70 813.65 146.35 813.83 153.00 C 813.71 155.04 815.56 156.26 816.73 157.66 C 817.43 149.14 816.53 140.61 816.65 132.08 C 815.79 132.40 814.94 132.73 814.11 133.05 M 808.30 136.13 C 808.24 139.37 807.98 142.63 808.31 145.87 C 808.39 147.75 809.94 149.02 810.99 150.42 C 811.56 145.30 811.43 140.14 811.11 135.00 C 810.16 135.38 809.22 135.75 808.30 136.13 M 802.89 140.94 C 803.73 142.26 804.76 143.44 805.78 144.63 C 805.85 142.21 805.84 139.79 805.74 137.38 C 804.75 138.51 803.19 139.37 802.89 140.94 Z" />
<path fill="#5555ff" opacity="1.00" d=" M 848.67 120.65 C 868.04 120.84 887.49 127.10 902.61 139.36 C 917.32 151.37 927.95 168.30 932.44 186.76 C 935.68 199.64 935.83 213.24 933.13 226.23 C 930.07 240.15 923.40 253.28 913.84 263.85 C 903.29 275.79 889.37 284.64 874.20 289.43 C 864.44 292.58 854.18 294.47 843.91 293.95 C 812.02 291.98 781.64 271.70 768.56 242.40 C 762.45 228.14 759.03 212.25 761.77 196.79 C 774.62 198.43 787.19 201.73 800.06 203.27 C 800.27 208.12 800.19 213.03 801.13 217.82 C 804.11 233.10 815.27 246.58 829.85 252.11 C 839.65 256.01 850.75 257.01 860.91 253.93 C 873.08 250.51 884.15 242.21 889.58 230.63 C 894.57 220.66 895.14 209.12 893.82 198.23 C 892.40 186.81 886.65 175.60 877.11 168.91 C 872.85 165.92 868.17 163.51 863.23 161.85 C 858.25 160.18 852.97 159.83 847.79 159.15 C 847.62 153.77 847.61 148.40 847.82 143.03 C 848.12 135.57 847.78 128.08 848.67 120.65 M 854.04 127.69 C 854.03 136.13 853.92 144.57 854.11 153.01 C 865.38 154.90 876.55 159.08 885.04 166.94 C 893.06 174.23 898.10 184.45 899.89 195.08 C 901.42 204.66 901.35 214.60 898.89 224.03 C 896.39 233.26 891.23 241.77 884.10 248.15 C 870.89 260.22 851.38 264.73 834.15 260.05 C 823.09 257.37 812.86 251.20 805.71 242.30 C 797.96 233.00 794.29 220.89 793.78 208.92 C 784.98 207.06 776.06 205.80 767.23 204.13 C 766.55 226.41 775.63 248.83 791.91 264.12 C 809.68 281.28 835.31 291.05 860.01 286.89 C 878.34 283.37 895.82 274.38 908.47 260.52 C 921.18 246.20 928.93 227.24 928.70 208.00 C 929.17 179.10 912.17 151.02 887.16 136.89 C 876.88 131.72 865.64 127.92 854.04 127.69 Z" />
<path fill="#5555ff" opacity="1.00" d=" M 664.41 123.32 C 664.89 123.39 665.85 123.52 666.33 123.59 C 666.61 124.95 666.89 126.31 667.19 127.68 C 667.96 127.80 669.49 128.06 670.26 128.18 C 670.10 129.33 669.95 130.49 669.80 131.64 C 668.75 131.76 667.70 131.87 666.67 131.98 C 665.64 132.81 664.61 133.65 663.60 134.50 C 663.54 130.75 663.86 127.02 664.41 123.32 Z" />
<path fill="#5555ff" opacity="1.00" d=" M 766.97 122.72 C 768.71 122.83 770.45 122.96 772.21 123.09 C 771.85 124.87 771.48 126.65 771.11 128.43 C 769.66 127.97 768.22 127.51 766.79 127.04 C 766.84 125.60 766.90 124.16 766.97 122.72 Z" />
<path fill="#5555ff" opacity="1.00" d=" M 191.85 124.63 C 198.17 123.92 204.57 123.72 210.91 124.24 C 212.07 124.46 213.71 124.46 214.24 125.76 C 214.93 127.73 214.93 129.86 215.06 131.92 C 215.32 140.85 215.17 149.78 215.21 158.71 C 222.74 158.45 230.27 158.74 237.80 158.71 C 239.87 157.26 242.74 154.62 245.07 157.21 C 245.38 159.32 244.76 161.41 244.37 163.46 C 242.90 163.37 241.42 163.27 239.95 163.17 C 239.27 162.18 238.59 161.20 237.92 160.21 C 229.63 160.32 221.35 160.45 213.06 160.20 C 213.25 148.85 213.45 137.50 212.74 126.16 C 206.24 125.93 199.75 126.00 193.26 126.13 C 193.26 127.87 193.27 129.61 193.27 131.35 C 190.46 130.26 192.27 126.89 191.85 124.63 M 239.73 161.08 C 240.68 161.38 242.59 161.98 243.55 162.28 C 243.28 160.57 243.01 158.86 242.73 157.16 C 241.71 158.45 240.71 159.76 239.73 161.08 Z" />
<path fill="#5555ff" opacity="1.00" d=" M 438.66 124.82 C 446.68 124.65 454.69 124.10 462.71 124.30 C 463.25 128.43 463.41 132.59 463.41 136.75 C 464.19 137.54 464.97 138.34 465.77 139.14 C 463.76 145.43 464.46 152.07 464.53 158.55 C 470.56 158.65 476.60 158.62 482.63 158.71 C 483.68 157.96 484.73 157.23 485.80 156.50 C 485.46 157.98 485.12 159.47 484.78 160.95 C 485.87 161.37 486.97 161.80 488.07 162.23 C 488.17 160.17 488.28 158.12 488.47 156.07 C 490.15 157.99 490.22 160.54 490.25 162.96 C 488.44 163.16 486.64 163.36 484.85 163.54 C 484.14 162.43 483.45 161.32 482.76 160.21 C 476.15 160.35 469.54 160.41 462.94 160.00 C 462.56 153.07 462.68 146.13 462.71 139.20 C 462.03 139.22 460.67 139.25 459.99 139.27 C 459.28 146.17 459.64 153.12 459.88 160.04 C 459.88 161.87 460.02 163.75 459.52 165.54 C 457.40 169.45 452.37 171.98 452.62 176.95 C 452.45 183.97 452.90 190.99 452.76 198.01 C 452.83 199.77 452.05 201.37 451.30 202.91 C 450.38 196.64 450.86 190.30 450.73 184.00 C 450.76 180.41 450.46 176.77 451.12 173.22 C 452.50 169.30 457.45 167.37 457.78 162.95 C 458.43 155.98 457.32 148.98 457.90 142.00 C 457.98 139.50 459.93 137.72 461.33 135.85 C 461.39 132.62 461.30 129.38 461.11 126.15 C 455.17 125.94 449.23 126.11 443.30 126.36 C 443.34 128.89 443.38 131.43 443.40 133.97 C 442.79 133.99 441.57 134.04 440.96 134.06 C 440.98 134.78 441.03 136.23 441.05 136.96 C 442.93 137.02 444.80 137.09 446.68 137.16 C 446.63 141.44 446.82 145.72 446.62 150.00 C 446.46 152.29 446.26 154.81 444.68 156.63 C 442.76 158.86 439.76 159.74 436.93 160.02 C 432.68 160.42 428.40 160.25 424.14 160.24 C 423.74 161.29 423.35 162.34 422.96 163.40 C 420.91 163.31 418.87 163.20 416.83 163.06 C 417.24 161.05 416.81 158.64 418.10 156.94 C 420.35 154.88 423.06 157.13 425.17 158.21 C 429.69 158.48 434.30 158.77 438.77 157.84 C 441.18 157.35 443.57 155.68 444.06 153.14 C 444.98 148.57 444.52 143.88 444.57 139.26 C 442.90 139.00 441.24 138.74 439.58 138.48 C 439.04 133.94 438.57 129.39 438.66 124.82 M 439.82 131.71 C 440.34 131.79 441.38 131.93 441.89 132.00 C 441.81 130.05 441.71 128.10 441.54 126.16 C 440.44 127.82 440.04 129.76 439.82 131.71 M 418.76 157.85 C 418.79 159.23 418.82 160.61 418.87 161.99 C 419.62 161.96 421.13 161.89 421.88 161.85 C 421.96 160.55 422.03 159.24 422.11 157.94 C 421.27 157.91 419.60 157.87 418.76 157.85 Z" />
<path fill="#5555ff" opacity="1.00" d=" M 130.13 124.51 C 132.43 125.56 134.70 126.69 136.92 127.90 C 135.25 131.09 133.31 134.12 131.10 136.96 C 129.31 135.64 127.37 134.46 125.97 132.70 C 125.68 129.44 128.53 127.05 130.13 124.51 Z" />
<path fill="#5555ff" opacity="1.00" d=" M 673.19 126.70 C 676.46 126.59 679.74 126.56 683.02 126.59 C 683.04 130.99 683.01 135.40 682.72 139.80 C 679.21 140.07 675.68 140.15 672.16 140.04 C 672.19 137.47 672.24 134.89 672.32 132.32 C 673.49 132.29 674.67 132.25 675.86 132.23 C 675.60 134.04 675.35 135.86 675.11 137.68 C 676.75 137.73 678.41 137.77 680.07 137.82 C 680.13 135.17 680.18 132.52 680.22 129.87 C 677.86 129.84 675.51 129.82 673.17 129.80 C 673.18 129.03 673.19 127.48 673.19 126.70 Z" />
<path fill="#5555ff" opacity="1.00" d=" M 714.11 126.92 C 721.09 126.41 728.11 126.43 735.08 127.07 C 734.37 129.61 733.66 132.15 732.92 134.67 C 726.16 134.79 719.41 134.86 712.66 134.79 C 713.10 132.16 713.60 129.54 714.11 126.92 Z" />
<path fill="#5555ff" opacity="1.00" d=" M 966.75 133.03 C 967.31 130.71 969.61 129.28 971.10 127.51 C 972.53 129.70 975.04 131.89 974.39 134.78 C 973.46 136.57 971.44 137.42 969.94 138.66 C 968.78 136.85 967.25 135.16 966.75 133.03 M 969.00 134.63 C 970.04 135.43 971.12 136.19 972.24 136.91 C 972.72 134.30 972.25 131.71 971.05 129.37 C 970.21 131.05 969.17 132.72 969.00 134.63 Z" />
<path fill="#5555ff" opacity="1.00" d=" M 195.01 131.92 C 195.02 130.63 196.37 129.84 196.94 128.76 C 197.28 130.77 197.61 132.78 197.94 134.80 C 197.25 134.91 195.88 135.11 195.19 135.22 C 195.05 136.57 194.91 137.92 194.78 139.28 C 196.23 139.26 197.69 139.23 199.15 139.21 C 199.27 143.39 199.61 147.65 198.77 151.78 C 198.06 155.22 195.10 157.72 191.92 158.88 C 188.22 160.19 184.24 160.06 180.38 160.32 C 178.78 161.48 177.43 163.91 175.15 163.24 C 171.97 162.80 172.18 158.75 173.44 156.62 C 174.92 156.11 176.46 155.78 177.98 155.43 C 178.65 156.42 179.32 157.41 180.00 158.40 C 185.04 158.22 190.99 158.73 194.86 154.84 C 198.11 151.11 197.51 145.79 197.85 141.21 C 196.30 141.10 194.75 141.00 193.21 140.91 C 192.96 137.78 193.18 134.59 192.57 131.51 C 193.18 131.61 194.40 131.82 195.01 131.92 M 174.76 156.90 C 174.59 158.45 174.44 160.01 174.31 161.56 C 175.37 161.53 176.43 161.50 177.50 161.47 C 177.60 160.16 177.69 158.85 177.79 157.54 C 177.03 157.38 175.52 157.06 174.76 156.90 Z" />
<path fill="#5555ff" opacity="1.00" d=" M 450.37 128.97 C 452.73 127.90 456.21 128.62 457.17 131.27 C 457.86 133.50 457.68 136.48 455.65 137.99 C 453.69 138.77 451.36 138.74 449.50 137.72 C 446.88 135.45 446.97 130.47 450.37 128.97 M 451.41 130.41 C 449.45 130.93 448.80 133.55 449.87 135.14 C 450.97 137.46 455.04 137.20 455.62 134.62 C 456.45 132.16 453.99 129.24 451.41 130.41 Z" />
<path fill="#5555ff" opacity="1.00" d=" M 1069.02 132.08 C 1070.35 130.93 1071.67 129.72 1073.19 128.78 C 1074.93 128.97 1076.62 129.50 1078.34 129.94 C 1077.91 131.98 1077.99 134.29 1076.66 136.02 C 1075.24 136.22 1073.79 136.27 1072.41 135.93 C 1071.10 134.81 1070.08 133.41 1069.02 132.08 M 1072.02 130.81 C 1072.04 131.62 1072.07 133.24 1072.09 134.04 C 1073.30 134.32 1074.53 134.59 1075.77 134.87 C 1075.66 133.34 1075.57 131.82 1075.48 130.30 C 1074.32 130.47 1073.16 130.64 1072.02 130.81 Z" />
<path fill="#5555ff" opacity="1.00" d=" M 765.43 129.41 C 766.68 129.82 767.96 130.19 769.18 130.74 C 769.88 132.13 769.29 133.79 769.36 135.28 C 767.74 134.95 766.15 134.61 764.55 134.28 C 764.83 132.65 765.13 131.03 765.43 129.41 Z" />
<path fill="#5555ff" opacity="1.00" d=" M 580.82 130.87 C 584.39 130.92 587.95 130.98 591.52 131.03 C 591.38 134.97 590.93 138.89 590.10 142.75 C 586.94 142.81 583.78 142.88 580.63 142.93 C 580.56 138.91 580.66 134.89 580.82 130.87 M 583.19 133.08 C 583.11 135.66 583.05 138.25 583.02 140.83 C 584.62 140.81 586.23 140.79 587.85 140.77 C 587.76 138.32 587.67 135.86 587.58 133.41 C 586.11 133.30 584.65 133.19 583.19 133.08 Z" />
<path fill="#5555ff" opacity="1.00" d=" M 1051.23 135.35 C 1052.12 133.43 1053.67 131.93 1055.03 130.33 C 1056.44 131.87 1058.23 133.21 1059.07 135.19 C 1059.90 138.19 1056.19 140.84 1053.51 139.58 C 1052.02 138.83 1050.45 137.12 1051.23 135.35 M 1053.55 134.59 C 1053.47 135.12 1053.31 136.18 1053.23 136.71 C 1053.67 137.03 1054.54 137.65 1054.97 137.97 C 1055.44 137.65 1056.38 137.02 1056.85 136.70 C 1056.52 135.52 1056.21 134.34 1055.91 133.16 C 1055.11 133.64 1054.32 134.12 1053.55 134.59 Z" />
<path fill="#5555ff" opacity="1.00" d=" M 988.80 141.19 C 986.60 138.55 987.92 134.00 991.15 132.98 C 994.63 133.15 996.92 137.39 995.81 140.57 C 993.91 142.26 990.89 142.93 988.80 141.19 M 989.51 135.68 C 989.43 137.14 989.36 138.61 989.31 140.07 C 991.24 140.17 993.18 140.22 995.14 140.23 C 994.53 138.35 993.91 136.48 993.27 134.62 C 992.00 134.97 990.75 135.32 989.51 135.68 Z" />
<path fill="#5555ff" opacity="1.00" d=" M 764.08 136.93 C 765.40 137.40 766.74 137.86 768.08 138.33 C 767.55 140.16 767.01 142.00 766.47 143.83 C 765.10 143.17 763.73 142.51 762.38 141.85 C 762.93 140.21 763.49 138.57 764.08 136.93 Z" />
<path fill="#5555ff" opacity="1.00" d=" M 129.23 139.20 C 130.68 138.03 132.37 140.55 130.88 141.55 C 129.43 142.71 127.73 140.20 129.23 139.20 Z" />
<path fill="#5555ff" opacity="1.00" d=" M 203.97 139.77 C 205.38 139.79 206.79 139.82 208.21 139.85 C 208.17 141.17 208.14 142.49 208.10 143.81 C 206.74 143.89 205.37 143.97 204.01 144.05 C 204.00 142.62 203.98 141.20 203.97 139.77 Z" />
<path fill="#5555ff" opacity="1.00" d=" M 710.67 139.69 C 717.53 139.74 724.40 139.63 731.26 139.93 C 730.81 142.57 730.33 145.20 729.87 147.83 C 722.82 147.95 715.78 147.93 708.75 147.73 C 709.33 145.03 709.97 142.35 710.67 139.69 Z" />
<path fill="#5555ff" opacity="1.00" d=" M 976.29 146.04 C 977.88 144.22 979.50 142.41 981.14 140.62 C 982.93 142.31 985.53 144.04 985.07 146.89 C 985.01 150.02 981.47 150.57 979.21 151.53 C 978.21 149.71 977.23 147.88 976.29 146.04 M 978.86 144.98 C 978.17 146.49 979.01 148.19 979.17 149.75 C 980.21 149.53 982.30 149.09 983.35 148.87 C 983.10 146.79 982.85 144.72 982.58 142.64 C 981.30 143.37 979.95 144.00 978.86 144.98 Z" />
<path fill="#5555ff" opacity="1.00" d=" M 1060.88 146.74 C 1060.06 144.10 1062.43 141.43 1065.04 141.27 C 1066.59 141.61 1068.04 142.28 1069.54 142.85 C 1069.15 144.69 1068.84 146.57 1068.21 148.35 C 1065.96 149.66 1061.61 149.81 1060.88 146.74 M 1063.88 142.76 C 1063.48 144.18 1063.09 145.61 1062.72 147.04 C 1064.16 147.01 1065.61 146.97 1067.07 146.93 C 1066.94 145.76 1066.81 144.59 1066.69 143.42 C 1065.99 143.25 1064.59 142.92 1063.88 142.76 Z" />
<path fill="#5555ff" opacity="1.00" d=" M 289.67 150.60 C 309.68 142.46 331.89 139.42 353.28 142.85 C 362.92 144.48 372.52 147.63 380.36 153.64 C 388.04 159.29 393.24 167.76 396.25 176.71 C 398.73 184.53 399.50 192.78 399.75 200.94 C 399.87 231.39 400.52 261.83 400.25 292.28 C 395.51 292.69 390.75 292.80 385.99 292.73 C 377.46 292.63 368.92 292.88 360.40 292.59 C 360.20 289.03 360.05 285.47 359.89 281.91 C 354.41 285.65 348.81 289.35 342.49 291.51 C 332.24 295.02 321.07 295.87 310.41 293.87 C 299.00 292.02 288.10 286.27 280.67 277.33 C 272.79 267.56 269.13 254.52 270.90 242.07 C 272.42 227.53 282.48 214.61 295.70 208.67 C 306.77 203.67 319.07 202.76 331.02 201.88 C 339.05 201.16 347.14 201.67 355.17 200.76 C 354.31 197.34 353.42 193.72 350.87 191.13 C 345.95 185.52 338.16 183.84 331.01 183.66 C 323.67 183.56 316.15 183.86 309.19 186.37 C 303.55 188.37 298.26 191.18 292.82 193.65 C 289.66 187.81 287.21 181.64 284.38 175.65 C 281.63 169.66 278.53 163.83 276.03 157.73 C 280.18 154.67 284.86 152.44 289.67 150.60 M 307.20 151.38 C 299.19 153.22 291.56 156.32 283.99 159.46 C 287.75 168.07 291.92 176.50 296.03 184.94 C 304.14 181.81 312.26 178.22 321.00 177.28 C 328.90 176.48 337.14 176.36 344.69 179.18 C 350.35 181.23 355.90 184.76 358.69 190.28 C 360.50 194.16 361.28 198.54 360.96 202.80 C 360.80 204.60 360.08 207.06 357.83 206.91 C 346.03 208.29 334.09 207.43 322.27 208.58 C 312.26 209.63 302.08 211.95 293.56 217.53 C 285.90 222.33 280.10 230.14 278.09 238.99 C 276.40 246.45 276.98 254.36 279.38 261.60 C 282.27 270.36 288.87 277.61 296.83 282.12 C 307.41 288.02 320.03 289.50 331.89 287.67 C 338.28 286.69 344.31 284.12 349.83 280.84 C 355.06 277.79 359.45 273.48 364.86 270.71 C 365.49 275.74 365.55 280.82 365.33 285.88 C 375.12 286.07 384.91 286.06 394.70 285.84 C 394.35 277.67 394.71 269.49 394.40 261.33 C 393.62 239.92 394.45 218.48 393.52 197.07 C 392.95 185.35 390.13 172.96 381.80 164.21 C 374.06 155.35 362.53 151.08 351.26 148.93 C 336.60 146.60 321.60 148.18 307.20 151.38 Z" />
<path fill="#5555ff" opacity="1.00" d=" M 759.73 151.68 C 760.72 149.13 761.79 146.62 762.99 144.16 C 763.85 144.92 764.69 145.72 765.51 146.55 C 765.45 148.86 764.58 151.05 764.03 153.27 C 762.58 152.75 761.15 152.21 759.73 151.68 Z" />
<path fill="#5555ff" opacity="1.00" d=" M 1042.67 148.97 C 1043.18 147.19 1044.06 145.55 1044.86 143.89 C 1046.59 144.56 1048.41 145.09 1050.02 146.08 C 1051.37 147.16 1051.27 149.09 1050.83 150.59 C 1049.19 152.09 1046.99 152.74 1045.01 153.62 C 1044.16 152.10 1043.23 150.62 1042.67 148.97 M 1044.50 146.48 C 1044.60 148.00 1044.71 149.53 1044.84 151.05 C 1046.23 151.09 1047.63 151.14 1049.04 151.18 C 1048.99 149.71 1048.95 148.25 1048.92 146.79 C 1047.44 146.68 1045.96 146.57 1044.50 146.48 Z" />
<path fill="#5555ff" opacity="1.00" d=" M 204.18 145.95 C 204.94 145.96 206.47 145.98 207.24 145.99 C 206.65 150.08 206.72 154.67 203.97 158.03 C 201.00 161.54 196.81 163.66 192.92 165.96 C 195.34 167.52 197.95 168.96 199.79 171.23 C 201.75 173.67 201.65 176.98 201.76 179.94 C 201.78 187.62 201.90 195.30 201.75 202.98 C 201.24 202.79 200.21 202.39 199.70 202.20 C 199.67 195.45 199.65 188.70 199.76 181.95 C 199.70 179.28 199.86 176.52 198.98 173.96 C 197.58 170.75 194.36 168.45 190.92 167.92 C 186.45 167.27 181.92 167.74 177.46 168.28 C 178.69 169.39 179.66 171.15 181.49 171.28 C 183.93 171.64 186.41 171.58 188.85 171.97 C 191.63 172.32 194.04 174.45 194.99 177.05 C 195.78 179.60 195.71 182.31 195.76 184.95 C 195.70 192.93 195.81 200.90 196.13 208.87 C 198.92 208.85 198.44 212.49 199.61 214.33 C 199.94 212.15 200.25 209.98 200.57 207.80 C 201.25 209.91 201.91 212.02 202.62 214.12 C 202.71 211.84 202.78 209.57 202.86 207.30 C 200.67 207.04 198.48 206.76 196.30 206.43 C 198.03 204.62 200.58 203.48 202.92 204.96 C 205.20 208.20 203.89 212.51 203.93 216.20 C 202.21 216.32 200.48 216.50 198.76 216.35 C 197.58 214.61 196.83 212.62 195.97 210.72 C 196.20 217.57 196.59 224.55 194.55 231.20 C 195.17 230.85 196.42 230.14 197.05 229.79 C 197.83 229.86 199.39 230.01 200.17 230.08 C 200.17 232.63 200.15 235.18 200.10 237.73 C 199.13 238.84 198.16 239.96 197.20 241.10 C 198.84 241.20 200.48 241.29 202.12 241.38 C 202.28 237.60 202.51 233.82 202.40 230.04 C 202.35 226.06 201.67 221.84 203.59 218.16 C 204.67 226.45 203.94 234.83 203.67 243.15 C 201.02 243.21 198.37 243.19 195.73 243.07 C 196.57 239.24 198.09 235.61 199.34 231.90 C 197.80 232.19 196.26 232.50 194.72 232.80 C 194.90 241.41 193.71 250.27 196.29 258.64 C 198.66 266.62 204.97 272.86 212.09 276.83 C 223.12 282.26 235.99 281.52 247.62 278.63 C 247.73 277.95 247.94 276.61 248.05 275.94 C 243.92 276.26 239.79 276.70 235.64 276.57 C 240.12 274.70 244.99 274.25 249.76 273.64 C 249.76 273.05 249.74 271.86 249.74 271.27 C 248.49 271.55 247.24 271.84 246.00 272.12 C 246.18 269.34 246.45 266.57 246.81 263.81 C 242.93 264.07 239.06 264.29 235.18 264.42 C 235.12 265.58 235.05 266.74 235.00 267.91 C 237.35 267.53 239.70 267.15 242.06 266.81 C 242.11 268.57 242.16 270.33 242.21 272.09 C 240.69 272.32 239.16 272.56 237.64 272.79 C 238.67 272.04 239.71 271.28 240.75 270.53 C 240.78 269.94 240.84 268.76 240.87 268.16 C 238.38 268.78 235.88 269.38 233.38 269.96 C 233.32 267.67 233.28 265.38 233.23 263.10 C 238.56 262.86 243.88 262.34 249.09 261.18 C 249.41 261.27 250.04 261.46 250.36 261.55 C 250.63 262.99 250.90 264.44 251.16 265.89 C 249.75 266.59 248.34 267.29 246.94 267.99 C 247.00 268.56 247.12 269.68 247.18 270.25 C 248.19 269.67 249.21 269.08 250.22 268.49 C 251.25 272.09 252.52 275.64 253.06 279.36 C 246.45 280.76 239.81 282.45 233.00 282.46 C 225.47 282.67 217.81 281.37 211.04 277.96 C 201.78 273.62 195.15 264.40 193.55 254.36 C 192.86 250.27 192.98 246.11 193.00 241.98 C 193.10 236.54 192.80 231.07 193.67 225.68 C 194.59 219.49 194.12 213.23 194.07 207.01 C 193.88 197.03 194.21 187.04 193.66 177.08 C 191.61 175.53 189.59 173.65 186.94 173.29 C 184.56 172.90 182.14 172.85 179.74 172.69 C 179.28 173.65 178.82 174.62 178.37 175.58 C 176.59 175.68 174.82 175.75 173.05 175.82 C 172.79 172.67 172.90 169.50 173.24 166.36 C 177.42 166.04 181.62 166.04 185.79 165.49 C 191.04 164.78 196.10 162.55 200.08 159.04 C 202.01 157.27 203.76 155.10 204.37 152.50 C 204.74 150.32 204.34 148.12 204.18 145.95 M 175.00 168.67 C 174.58 170.38 174.18 172.10 173.78 173.82 C 174.60 173.87 176.24 173.99 177.06 174.04 C 177.33 173.50 177.88 172.41 178.16 171.86 C 177.11 170.79 176.06 169.72 175.00 168.67 Z" />
<path fill="#5555ff" opacity="1.00" d=" M 620.26 145.90 C 627.75 145.36 635.26 145.64 642.75 146.08 C 646.51 160.48 651.14 174.64 655.09 188.99 C 657.64 198.18 660.82 207.23 662.26 216.69 C 660.57 216.67 658.89 216.66 657.21 216.64 C 655.56 210.13 653.45 203.75 651.68 197.28 C 647.30 182.02 643.75 166.51 638.29 151.58 C 633.31 151.40 628.32 151.38 623.34 151.37 C 620.40 165.90 616.01 180.08 611.43 194.17 C 609.43 200.59 607.52 207.05 605.24 213.39 C 603.77 213.22 602.31 213.06 600.85 212.90 C 607.49 190.62 614.77 168.51 620.26 145.90 Z" />
<path fill="#5555ff" opacity="1.00" d=" M 763.34 190.09 C 765.27 172.64 775.09 156.86 788.19 145.48 C 797.44 153.83 805.16 163.69 814.06 172.40 C 811.02 176.61 807.71 180.67 805.41 185.36 C 803.41 189.25 802.27 193.49 801.27 197.73 C 788.54 195.65 775.96 192.71 763.34 190.09 M 787.22 154.93 C 785.14 155.86 787.29 158.34 788.87 157.25 C 790.94 156.36 788.76 153.79 787.22 154.93 M 783.13 159.22 C 782.69 160.16 782.25 161.10 781.82 162.05 C 786.25 162.12 790.68 162.08 795.11 161.96 C 794.93 161.35 794.58 160.14 794.41 159.54 C 790.65 159.35 786.89 159.25 783.13 159.22 M 779.01 164.75 C 778.78 165.30 778.30 166.41 778.07 166.96 C 785.47 167.08 792.87 167.20 800.28 167.12 C 799.99 166.49 799.42 165.24 799.14 164.62 C 792.43 164.62 785.72 164.57 779.01 164.75 M 774.39 171.42 C 779.88 172.26 785.46 171.96 791.00 172.00 C 796.21 172.00 801.46 172.31 806.66 171.63 C 802.18 168.16 796.18 170.12 790.99 169.67 C 785.47 170.09 779.31 168.13 774.39 171.42 M 773.01 174.88 C 773.06 175.59 773.14 177.02 773.18 177.74 C 783.07 177.55 792.96 177.31 802.85 177.70 C 803.22 176.79 803.60 175.88 803.99 174.98 C 793.67 174.62 783.33 174.68 773.01 174.88 M 771.18 180.23 C 771.18 180.86 771.19 182.12 771.19 182.75 C 780.78 182.74 790.37 182.82 799.96 182.77 C 800.30 181.93 800.64 181.09 801.00 180.25 C 791.06 180.20 781.12 180.18 771.18 180.23 M 771.77 185.44 C 780.09 188.39 788.97 189.33 797.75 188.63 C 798.10 187.71 798.47 186.80 798.84 185.89 C 789.85 184.97 780.79 185.34 771.77 185.44 Z" />
<path fill="#5555ff" opacity="1.00" d=" M 1085.98 156.87 C 1093.67 151.95 1102.17 148.24 1110.94 145.72 C 1111.04 154.49 1111.11 163.26 1110.93 172.03 C 1106.99 170.11 1103.17 167.97 1099.32 165.90 C 1094.37 172.78 1089.61 179.79 1084.94 186.87 C 1080.77 193.09 1077.39 199.80 1072.91 205.81 C 1067.95 201.48 1064.12 196.09 1059.88 191.10 C 1054.88 185.19 1050.07 179.12 1044.89 173.37 C 1040.75 178.47 1037.23 184.03 1033.34 189.32 C 1024.37 201.58 1015.89 214.19 1006.76 226.33 C 997.45 217.37 988.86 207.70 980.06 198.26 C 970.83 210.72 962.81 224.03 953.42 236.39 C 951.32 238.93 950.52 242.16 949.98 245.33 C 947.89 245.59 945.61 246.56 943.61 245.54 C 941.47 244.77 941.38 242.09 941.79 240.21 C 942.12 238.22 944.26 237.54 945.70 236.48 C 947.44 234.26 949.03 231.94 950.58 229.58 C 955.96 221.35 961.74 213.38 967.20 205.19 C 971.18 199.34 974.95 193.30 979.57 187.91 C 988.99 197.18 997.19 207.60 1006.55 216.92 C 1011.14 208.64 1016.71 200.96 1022.36 193.38 C 1027.85 185.87 1033.19 178.25 1038.76 170.79 C 1040.69 168.18 1042.96 165.84 1045.40 163.69 C 1054.82 173.79 1063.06 184.90 1072.10 195.33 C 1078.99 184.64 1085.46 173.67 1092.82 163.28 C 1090.34 161.36 1088.04 159.23 1085.98 156.87 M 1096.00 157.27 C 1098.87 159.54 1101.85 161.70 1105.00 163.59 C 1105.12 160.24 1105.14 156.90 1105.08 153.55 C 1102.00 154.67 1098.98 155.93 1096.00 157.27 Z" />
<path fill="#5555ff" opacity="1.00" d=" M 533.43 147.05 C 540.57 146.94 547.72 146.93 554.86 147.19 C 555.37 149.70 555.88 152.22 556.36 154.75 C 549.26 154.97 542.16 154.82 535.06 154.73 C 534.48 152.17 533.93 149.62 533.43 147.05 Z" />
<path fill="#5555ff" opacity="1.00" d=" M 581.14 147.06 C 584.46 147.15 587.79 147.32 591.11 147.64 C 590.99 150.42 590.89 153.19 590.79 155.97 C 587.50 156.01 584.21 156.02 580.93 156.03 C 580.96 153.04 581.02 150.05 581.14 147.06 M 584.19 149.25 C 584.00 150.83 583.83 152.41 583.67 153.99 C 585.40 153.91 587.14 153.82 588.88 153.73 C 588.69 152.36 588.53 150.99 588.37 149.62 C 586.97 149.50 585.57 149.38 584.19 149.25 Z" />
<path fill="#5555ff" opacity="1.00" d=" M 672.26 146.76 C 675.90 146.59 679.56 146.55 683.22 146.65 C 683.47 150.79 683.49 154.93 683.32 159.08 C 679.56 159.14 675.82 159.13 672.07 159.05 C 672.09 154.95 672.16 150.86 672.26 146.76 M 675.06 149.23 C 675.05 151.43 675.05 153.63 675.06 155.83 C 676.75 155.82 678.46 155.80 680.17 155.79 C 680.17 153.63 680.16 151.48 680.13 149.33 C 678.43 149.30 676.74 149.26 675.06 149.23 Z" />
<path fill="#5555ff" opacity="1.00" d=" M 997.41 147.10 C 1000.53 145.06 1004.55 148.40 1003.91 151.79 C 1003.01 154.27 999.88 155.73 997.40 154.81 C 994.73 153.10 993.99 148.45 997.41 147.10 M 997.39 149.40 C 997.35 150.91 997.58 152.41 997.77 153.91 C 999.28 153.50 1000.80 153.09 1002.34 152.68 C 1001.83 151.14 1001.35 149.58 1000.63 148.14 C 999.40 148.15 998.01 148.15 997.39 149.40 Z" />
<path fill="#5555ff" opacity="1.00" d=" M 450.93 149.12 C 451.61 149.29 452.95 149.64 453.62 149.82 C 453.34 152.99 453.42 156.29 452.27 159.31 C 450.69 162.55 447.60 164.64 444.98 166.98 C 446.39 170.18 447.74 173.53 447.75 177.10 C 447.89 186.42 447.59 195.74 447.91 205.06 C 449.10 205.25 450.30 205.43 451.50 205.62 C 451.63 209.13 451.70 212.64 451.77 216.16 C 450.02 216.42 448.27 216.75 446.51 216.73 C 445.65 215.59 444.94 214.35 444.22 213.14 C 444.99 213.35 446.53 213.78 447.30 213.99 C 447.34 212.73 447.38 211.47 447.43 210.22 C 447.74 209.92 448.36 209.31 448.68 209.01 C 448.97 211.12 449.27 213.23 449.62 215.34 C 449.95 212.87 450.20 210.38 450.45 207.91 C 448.90 207.60 447.36 207.31 445.82 207.03 C 445.78 196.66 445.99 186.29 445.81 175.92 C 445.98 172.75 444.19 170.09 442.32 167.72 C 435.93 167.96 429.54 168.13 423.15 168.39 C 423.24 168.91 423.44 169.94 423.53 170.46 C 427.98 170.49 432.47 170.23 436.88 170.94 C 439.69 171.30 441.92 173.69 442.55 176.38 C 443.18 179.20 443.04 182.12 443.06 184.99 C 442.81 199.05 443.46 213.10 442.97 227.16 C 442.33 227.73 441.70 228.30 441.08 228.88 C 441.06 229.63 441.01 231.12 440.99 231.87 C 442.90 231.16 444.82 230.46 446.75 229.79 C 447.01 232.80 447.19 235.82 447.29 238.85 C 446.34 238.96 444.45 239.19 443.50 239.30 C 443.50 237.75 443.50 236.21 443.52 234.66 C 444.10 234.72 445.28 234.84 445.86 234.90 C 445.84 234.16 445.81 232.68 445.79 231.93 C 444.40 232.52 443.02 233.10 441.64 233.69 C 441.80 239.80 441.46 245.93 442.02 252.03 C 442.65 258.92 445.36 265.77 450.35 270.66 C 457.29 277.70 467.23 281.26 477.01 281.44 C 483.74 281.52 490.58 281.00 497.00 278.87 C 496.42 278.43 495.25 277.54 494.67 277.09 C 490.10 276.90 485.60 277.93 481.07 278.35 C 481.08 277.84 481.09 276.83 481.09 276.33 C 487.71 275.87 494.28 274.64 500.94 274.76 C 501.00 276.48 501.06 278.20 501.11 279.93 C 493.59 282.10 485.82 283.39 477.97 283.07 C 469.71 283.33 461.56 280.72 454.58 276.40 C 448.18 272.34 443.73 265.68 441.58 258.49 C 439.79 252.49 440.18 246.16 439.93 239.99 C 439.81 235.07 438.86 229.84 441.30 225.29 C 441.85 214.87 441.48 204.43 441.55 194.00 C 441.44 188.87 441.88 183.72 441.21 178.63 C 440.83 176.28 439.73 173.50 437.16 172.90 C 432.85 171.87 428.37 172.33 423.98 172.25 C 423.64 173.09 423.31 173.94 422.97 174.79 C 420.92 174.82 418.86 174.85 416.81 174.87 C 416.78 172.21 416.82 169.55 416.89 166.89 C 422.59 166.37 428.31 165.87 434.04 166.01 C 437.50 165.96 441.24 166.24 444.33 164.38 C 446.98 162.78 449.32 160.38 450.30 157.39 C 451.00 154.69 450.81 151.87 450.93 149.12 M 418.28 169.13 C 418.29 170.66 418.31 172.19 418.34 173.72 C 419.44 173.70 420.54 173.68 421.64 173.67 C 421.63 172.17 421.63 170.68 421.64 169.18 C 420.51 169.16 419.39 169.15 418.28 169.13 Z" />
<path fill="#5555ff" opacity="1.00" d=" M 327.06 152.85 C 334.99 151.99 343.04 151.90 350.97 152.93 C 356.20 153.56 361.13 155.68 365.54 158.50 C 376.58 165.51 385.20 177.35 385.93 190.70 C 385.55 190.76 384.78 190.87 384.39 190.92 C 383.62 177.28 374.04 166.05 363.01 158.94 C 357.89 155.84 351.83 154.86 345.96 154.43 C 338.69 153.99 331.33 153.88 324.15 155.21 C 320.88 155.82 317.58 156.22 314.26 156.11 C 318.06 153.62 322.67 153.33 327.06 152.85 Z" />
<path fill="#5555ff" opacity="1.00" d=" M 706.87 152.69 C 713.88 152.59 720.91 152.57 727.92 152.95 C 727.24 155.33 726.57 157.72 725.91 160.11 C 719.10 160.41 712.29 160.35 705.48 160.13 C 705.90 157.64 706.37 155.16 706.87 152.69 Z" />
<path fill="#5555ff" opacity="1.00" d=" M 758.54 154.81 C 760.03 155.52 761.74 155.98 762.92 157.21 C 762.91 158.69 762.76 160.17 762.62 161.64 C 760.97 161.34 759.34 161.04 757.71 160.73 C 757.96 158.76 758.23 156.78 758.54 154.81 Z" />
<path fill="#5555ff" opacity="1.00" d=" M 1051.56 158.08 C 1052.46 156.43 1053.98 154.70 1056.04 154.74 C 1058.01 155.16 1059.77 156.20 1061.59 157.06 C 1060.65 158.59 1059.88 160.28 1058.60 161.56 C 1057.21 162.46 1055.63 162.97 1054.14 163.59 C 1053.18 161.80 1052.11 160.05 1051.56 158.08 M 1054.03 157.08 C 1054.10 158.28 1054.18 159.48 1054.27 160.69 C 1055.55 160.75 1056.84 160.82 1058.15 160.88 C 1058.03 159.29 1057.91 157.70 1057.81 156.11 C 1056.53 156.43 1055.28 156.76 1054.03 157.08 Z" />
<path fill="#5555ff" opacity="1.00" d=" M 291.32 161.80 C 296.82 159.20 302.57 157.06 308.55 155.88 C 310.81 161.44 312.71 167.15 314.20 172.97 C 309.00 175.46 303.56 177.38 298.04 179.04 C 295.53 173.40 293.07 167.73 291.32 161.80 M 293.89 162.52 C 295.30 167.39 297.21 172.08 299.16 176.75 C 303.49 175.18 307.80 173.58 312.02 171.75 C 310.75 167.18 309.10 162.72 307.04 158.45 C 302.60 159.63 298.25 161.08 293.89 162.52 Z" />
<path fill="#5555ff" opacity="1.00" d=" M 314.51 159.56 C 319.84 155.77 326.77 156.25 332.99 155.85 C 332.73 156.29 332.20 157.15 331.94 157.58 C 326.06 157.69 320.35 159.22 314.51 159.56 Z" />
<path fill="#5555ff" opacity="1.00" d=" M 335.41 156.68 C 339.47 154.97 343.92 155.40 348.20 155.59 L 348.25 156.90 C 343.97 156.90 339.68 157.06 335.41 156.68 Z" />
<path fill="#5555ff" opacity="1.00" d=" M 985.45 159.36 C 985.96 156.66 989.10 154.69 991.71 155.95 C 993.65 157.07 993.62 159.73 992.77 161.54 C 991.04 163.41 988.30 163.62 986.00 164.33 C 985.75 162.68 985.38 161.03 985.45 159.36 M 987.33 157.33 C 987.14 158.94 986.97 160.56 986.83 162.18 C 988.37 161.92 989.93 161.66 991.50 161.38 C 991.56 160.81 991.70 159.68 991.77 159.11 C 991.53 158.63 991.06 157.68 990.82 157.21 C 989.64 157.24 988.48 157.28 987.33 157.33 Z" />
<path fill="#5555ff" opacity="1.00" d=" M 316.11 160.99 C 320.35 160.31 324.64 159.53 328.96 159.87 C 324.86 161.58 320.47 162.31 316.13 163.10 C 316.12 162.58 316.11 161.52 316.11 160.99 Z" />
<path fill="#5555ff" opacity="1.00" d=" M 336.21 159.72 C 340.85 157.95 346.02 158.10 350.65 159.86 C 345.87 160.69 340.97 160.62 336.21 159.72 Z" />
<path fill="#5555ff" opacity="1.00" d=" M 357.27 159.37 C 362.47 159.79 366.37 163.65 369.86 167.14 C 373.19 170.46 375.39 174.67 377.04 179.02 C 378.15 180.69 375.89 181.50 374.73 181.97 C 376.16 184.35 377.84 186.67 378.49 189.41 C 379.22 192.46 379.49 195.59 379.89 198.70 C 379.18 198.80 377.77 199.01 377.06 199.11 C 377.16 196.40 377.37 193.69 377.18 190.98 C 377.07 188.58 375.37 186.73 374.28 184.72 C 373.06 182.85 372.44 180.69 371.86 178.56 C 372.64 178.34 374.22 177.90 375.01 177.67 C 373.22 174.64 371.45 171.55 368.97 169.02 C 365.49 165.31 361.08 162.69 357.27 159.37 Z" />
<path fill="#5555ff" opacity="1.00" d=" M 628.39 158.78 C 630.15 158.77 631.93 158.66 633.68 159.00 C 636.04 160.65 636.74 163.71 637.77 166.25 C 641.28 177.23 644.56 188.28 647.92 199.31 C 649.79 205.43 651.90 211.49 653.22 217.76 C 651.50 217.77 649.79 217.78 648.08 217.78 C 644.59 206.56 641.32 195.27 637.95 184.01 C 635.93 177.53 634.68 170.82 632.13 164.52 C 627.49 177.22 623.44 190.12 619.09 202.92 C 617.74 206.84 616.53 210.81 615.58 214.85 C 614.19 214.97 612.82 215.07 611.45 215.17 C 611.80 208.09 614.91 201.63 616.84 194.92 C 620.44 182.79 624.98 170.96 628.39 158.78 Z" />
<path fill="#5555ff" opacity="1.00" d=" M 1007.45 159.40 C 1010.35 158.49 1013.32 161.79 1012.72 164.62 C 1011.71 166.39 1009.68 168.51 1007.45 167.60 C 1005.69 166.85 1003.56 165.29 1003.98 163.12 C 1004.26 161.35 1005.87 160.06 1007.45 159.40 M 1006.05 161.47 C 1005.99 162.40 1005.89 164.26 1005.84 165.19 C 1007.38 165.57 1008.93 165.95 1010.50 166.33 C 1010.32 164.71 1011.26 162.54 1009.64 161.44 C 1008.43 161.36 1007.23 161.43 1006.05 161.47 Z" />
<path fill="#5555ff" opacity="1.00" d=" M 536.76 160.14 C 543.79 159.99 550.84 159.75 557.88 160.14 C 558.41 162.73 558.93 165.33 559.43 167.93 C 552.37 167.94 545.31 167.94 538.25 167.77 C 537.74 165.23 537.24 162.69 536.76 160.14 Z" />
<path fill="#5555ff" opacity="1.00" d=" M 581.28 160.34 C 584.23 160.34 587.18 160.32 590.14 160.27 C 590.02 163.77 589.85 167.26 589.64 170.75 C 587.30 170.73 584.97 170.71 582.64 170.66 C 582.27 167.21 581.84 163.76 581.28 160.34 M 583.66 163.53 C 584.66 164.42 585.67 165.32 586.69 166.21 C 587.18 165.14 587.67 164.07 588.17 163.00 C 586.66 163.17 585.15 163.34 583.66 163.53 Z" />
<path fill="#5555ff" opacity="1.00" d=" M 203.94 175.37 C 203.98 169.33 209.09 165.24 213.45 161.87 C 211.00 166.83 207.53 171.20 203.94 175.37 Z" />
<path fill="#5555ff" opacity="1.00" d=" M 299.16 164.83 C 301.44 164.06 303.74 163.33 306.05 162.64 C 306.88 165.02 307.66 167.42 308.36 169.85 C 306.16 170.64 303.95 171.40 301.75 172.15 C 300.83 169.72 299.97 167.28 299.16 164.83 M 302.18 166.22 C 302.17 166.88 302.13 168.20 302.12 168.86 C 303.42 168.87 304.72 168.87 306.03 168.88 C 305.67 167.92 305.32 166.97 304.97 166.01 C 304.27 166.07 302.88 166.17 302.18 166.22 Z" />
<path fill="#5555ff" opacity="1.00" d=" M 315.98 164.74 C 320.41 163.15 325.15 162.39 329.84 163.09 C 327.44 165.11 324.15 164.60 321.50 165.92 C 325.20 166.91 329.22 165.70 333.06 165.90 C 333.69 164.96 334.33 164.03 334.97 163.09 C 339.92 162.96 345.38 162.04 349.65 165.23 C 357.15 167.46 363.97 172.29 367.86 179.17 C 370.56 183.66 370.89 188.99 372.18 193.95 C 372.76 196.53 373.63 199.20 373.10 201.87 C 372.50 204.60 370.28 206.53 368.19 208.20 C 364.25 211.20 359.86 213.89 354.91 214.75 C 350.39 215.52 345.80 215.36 341.24 215.37 C 341.33 216.78 341.41 218.18 341.49 219.59 C 349.07 220.12 356.81 219.04 363.69 215.69 C 368.77 213.55 372.56 209.41 377.27 206.65 C 376.01 208.83 374.56 210.96 372.50 212.48 C 366.81 216.85 359.94 219.56 352.89 220.72 C 341.83 222.39 330.53 220.29 319.52 222.48 C 311.20 223.92 303.32 228.51 298.34 235.38 C 294.04 241.48 294.04 249.53 296.31 256.40 C 301.30 259.43 304.58 264.63 309.92 267.16 C 316.35 270.75 323.87 271.21 331.08 271.03 C 331.02 271.49 330.91 272.43 330.85 272.90 C 326.90 272.79 322.93 272.72 319.01 272.11 C 310.23 270.87 302.33 265.39 297.57 257.98 C 296.29 257.71 295.02 257.46 293.75 257.21 C 292.30 250.81 291.93 243.81 294.75 237.71 C 298.28 230.18 305.45 224.84 313.22 222.23 C 321.79 219.42 330.94 219.53 339.85 219.72 C 339.49 218.26 339.14 216.80 338.79 215.34 C 328.70 215.11 318.39 215.57 308.76 218.88 C 301.32 221.60 294.01 225.85 289.64 232.67 C 283.22 242.42 284.32 255.86 290.60 265.40 C 298.99 277.09 313.80 283.31 328.03 282.31 C 335.92 282.25 343.30 278.97 349.76 274.67 C 349.97 273.54 350.19 272.42 350.41 271.29 C 356.83 266.90 363.22 261.74 366.38 254.40 C 369.94 246.33 367.03 237.29 369.07 228.91 C 370.55 234.82 370.13 240.97 369.82 246.99 C 369.53 252.70 367.11 258.13 363.48 262.49 C 360.52 266.18 356.42 268.74 353.49 272.46 C 351.57 274.89 349.47 277.26 346.72 278.77 C 333.60 286.57 316.54 285.83 303.28 278.73 C 294.84 274.51 288.25 266.90 285.07 258.04 C 281.88 248.36 283.37 236.94 289.93 228.96 C 295.68 222.03 304.06 217.61 312.79 215.74 C 321.71 213.84 330.89 213.47 339.98 213.74 C 344.97 213.72 350.01 213.82 354.92 212.83 C 361.43 211.29 367.03 207.21 371.61 202.45 C 371.52 201.68 371.35 200.12 371.26 199.35 C 370.81 199.78 369.91 200.63 369.46 201.06 L 369.88 201.65 C 368.26 201.69 366.64 201.72 365.03 201.76 C 364.47 195.56 364.96 188.87 361.74 183.28 C 359.01 178.32 354.37 174.79 349.37 172.33 C 346.95 172.87 344.51 173.49 342.02 173.45 C 337.96 173.35 334.13 171.59 330.06 171.63 C 326.05 171.65 322.05 172.08 318.03 172.23 C 318.07 171.78 318.14 170.88 318.18 170.43 C 324.61 170.27 331.11 169.01 337.51 170.34 C 337.94 170.66 338.82 171.32 339.25 171.65 C 339.08 169.93 338.92 168.22 338.76 166.50 C 340.53 166.55 342.30 166.62 344.07 166.70 C 343.97 167.51 343.76 169.13 343.66 169.93 C 342.28 169.98 341.82 168.48 340.96 167.69 C 340.80 168.62 340.48 170.46 340.32 171.39 C 342.76 172.81 345.07 170.34 347.44 169.80 C 354.94 171.90 361.17 177.60 364.24 184.71 C 366.18 189.22 366.02 194.22 366.19 199.02 C 367.85 199.12 369.51 199.24 371.17 199.36 L 371.53 198.09 C 369.46 195.76 369.60 192.20 369.31 189.21 C 369.16 182.40 364.86 176.39 359.58 172.40 C 356.03 169.54 351.58 168.29 347.49 166.41 C 345.14 165.35 342.64 164.25 339.99 164.54 C 337.72 164.48 336.03 166.12 334.35 167.39 C 328.48 167.96 322.59 168.38 316.70 168.74 C 318.20 167.81 319.38 166.11 321.32 166.28 C 319.53 165.78 317.75 165.28 315.98 164.74 Z" />
<path fill="#5555ff" opacity="1.00" d=" M 756.18 167.52 C 754.71 165.31 757.25 163.83 758.57 162.44 C 759.57 163.31 760.57 164.18 761.59 165.05 C 761.27 166.43 760.97 167.81 760.67 169.19 C 759.15 168.67 757.62 168.19 756.18 167.52 Z" />
<path fill="#5555ff" opacity="1.00" d=" M 703.50 165.40 C 710.41 165.21 717.33 165.43 724.22 166.02 C 723.49 168.63 722.74 171.23 721.98 173.83 C 715.31 173.66 708.63 173.42 701.96 173.16 C 702.46 170.57 702.98 167.99 703.50 165.40 Z" />
<path fill="#5555ff" opacity="1.00" d=" M 210.10 173.06 C 213.84 169.17 219.34 167.55 224.59 167.15 C 221.18 170.43 215.81 170.10 212.43 173.43 C 208.95 176.40 209.32 181.38 208.37 185.45 C 207.91 181.34 207.05 176.42 210.10 173.06 Z" />
<path fill="#5555ff" opacity="1.00" d=" M 226.96 166.42 C 228.42 167.12 229.88 167.84 231.35 168.56 C 235.58 166.49 240.31 166.21 244.92 166.85 C 244.98 169.60 245.01 172.36 245.00 175.13 C 235.58 175.80 226.12 174.34 216.72 175.49 C 216.82 178.91 216.83 182.34 216.75 185.76 C 215.50 186.14 214.25 186.52 213.00 186.91 C 212.72 194.63 212.69 202.35 212.90 210.07 C 213.54 210.24 214.82 210.56 215.47 210.73 C 215.41 211.42 215.29 212.79 215.23 213.48 C 214.69 213.40 213.60 213.24 213.06 213.16 C 212.65 219.05 212.65 224.95 212.74 230.85 C 212.36 230.85 211.60 230.86 211.22 230.87 C 210.83 221.91 211.05 212.95 210.99 204.00 C 210.94 197.65 211.34 191.25 210.31 184.94 C 211.95 184.90 213.58 184.85 215.21 184.81 C 215.24 182.94 215.24 181.07 215.23 179.21 C 213.89 179.75 212.56 180.29 211.23 180.84 C 211.41 179.83 211.58 178.82 211.76 177.82 C 214.96 175.92 218.08 173.27 222.00 173.28 C 227.67 173.16 233.44 173.87 238.99 172.33 C 240.36 172.95 241.73 173.58 243.11 174.21 C 242.49 173.31 241.88 172.41 241.27 171.52 C 241.75 170.55 242.24 169.57 242.73 168.60 C 240.58 168.46 238.43 168.34 236.29 168.24 C 235.99 168.76 235.40 169.79 235.11 170.31 C 232.31 170.27 229.51 170.23 226.72 170.21 C 226.78 169.26 226.90 167.37 226.96 166.42 Z" />
<path fill="#5555ff" opacity="1.00" d=" M 457.45 173.43 C 460.46 169.50 465.52 168.33 469.91 166.66 C 469.77 167.30 469.47 168.59 469.33 169.23 C 465.50 170.35 461.07 171.23 458.64 174.72 C 456.85 177.56 457.25 181.09 456.94 184.28 C 459.02 184.27 461.10 184.24 463.18 184.19 C 463.17 182.43 463.16 180.67 463.14 178.91 C 462.07 180.06 461.00 181.22 459.92 182.37 C 459.92 180.62 459.94 178.87 459.98 177.12 C 461.56 177.21 463.14 177.30 464.73 177.40 C 464.70 180.09 464.64 182.78 464.56 185.48 C 463.39 185.98 462.23 186.49 461.08 187.00 C 461.25 202.66 461.49 218.32 461.41 233.98 L 459.69 233.99 C 459.40 218.22 459.85 202.44 459.50 186.67 C 458.12 186.31 456.75 185.95 455.38 185.59 C 455.33 181.51 454.60 176.81 457.45 173.43 Z" />
<path fill="#5555ff" opacity="1.00" d=" M 472.60 166.68 C 473.47 166.80 475.20 167.04 476.07 167.16 C 476.12 167.85 476.23 169.24 476.29 169.93 C 475.40 169.94 473.63 169.94 472.74 169.94 C 472.71 169.13 472.64 167.50 472.60 166.68 Z" />
<path fill="#5555ff" opacity="1.00" d=" M 477.32 169.87 C 480.27 166.39 485.01 167.02 489.08 167.03 C 489.37 169.69 489.62 172.36 489.85 175.03 C 481.08 175.69 472.28 174.93 463.49 175.37 C 468.61 171.76 475.05 174.27 480.73 172.84 C 482.15 172.73 483.55 171.76 484.98 172.16 C 484.76 172.57 484.33 173.39 484.11 173.80 C 484.83 173.77 486.26 173.69 486.98 173.66 C 486.78 173.24 486.39 172.42 486.20 172.01 C 486.42 170.70 486.65 169.38 486.87 168.07 C 483.68 168.65 480.52 169.39 477.32 169.87 Z" />
<path fill="#5555ff" opacity="1.00" d=" M 995.47 169.21 C 996.75 167.92 999.14 168.54 1000.42 169.60 C 1003.29 172.34 1000.17 178.05 996.33 176.83 C 993.15 175.59 992.45 171.08 995.47 169.21 M 995.08 172.17 C 995.05 173.31 995.41 174.32 996.13 175.21 C 996.77 175.18 998.05 175.12 998.68 175.09 C 999.90 173.66 999.53 171.70 999.70 169.98 C 998.10 170.57 996.30 170.91 995.08 172.17 Z" />
<path fill="#5555ff" opacity="1.00" d=" M 539.84 173.10 C 546.97 172.82 554.09 173.05 561.22 172.98 C 561.92 175.60 562.57 178.22 563.20 180.86 C 556.07 180.99 548.94 180.98 541.82 180.94 C 541.12 178.33 540.47 175.72 539.84 173.10 Z" />
<path fill="#5555ff" opacity="1.00" d=" M 999.57 183.86 C 1001.00 181.59 1002.03 178.23 1005.07 177.75 C 1008.96 177.21 1011.35 183.01 1008.38 185.49 C 1005.44 187.28 1002.27 185.01 999.57 183.86 M 1003.39 180.50 C 1003.25 181.60 1003.13 182.69 1003.01 183.79 C 1004.38 183.95 1005.76 184.11 1007.15 184.27 C 1007.10 182.78 1007.06 181.30 1007.03 179.82 C 1005.80 180.05 1004.59 180.27 1003.39 180.50 Z" />
<path fill="#5555ff" opacity="1.00" d=" M 699.82 179.00 C 706.70 178.87 713.58 178.91 720.46 179.01 C 719.96 181.65 719.42 184.29 718.87 186.92 C 711.82 187.11 704.76 187.10 697.72 186.87 C 698.38 184.24 699.09 181.62 699.82 179.00 Z" />
<path fill="#5555ff" opacity="1.00" d=" M 377.65 183.79 C 379.03 183.44 380.42 183.11 381.81 182.79 C 383.19 188.82 381.76 195.32 384.31 201.06 C 384.22 201.20 384.05 201.48 383.96 201.62 C 383.10 201.38 382.23 201.15 381.38 200.91 C 381.39 195.97 381.23 191.02 380.95 186.09 C 379.85 185.32 378.74 184.55 377.65 183.79 Z" />
<path fill="#5555ff" opacity="1.00" d=" M 543.70 186.34 C 550.64 186.30 557.58 186.30 564.53 186.44 C 565.14 189.02 565.75 191.61 566.33 194.20 C 559.25 194.40 552.16 194.21 545.09 193.87 C 544.61 191.36 544.13 188.86 543.70 186.34 Z" />
<path fill="#5555ff" opacity="1.00" d=" M 206.35 192.05 C 207.45 192.04 208.56 192.03 209.68 192.02 C 209.68 195.08 209.69 198.13 209.69 201.19 C 208.57 201.18 207.46 201.16 206.34 201.14 C 206.34 198.11 206.33 195.08 206.35 192.05 Z" />
<path fill="#5555ff" opacity="1.00" d=" M 454.60 202.01 C 454.94 198.42 453.23 193.60 456.90 191.28 C 457.26 194.85 457.25 198.43 457.21 202.01 C 456.56 202.01 455.25 202.01 454.60 202.01 Z" />
<path fill="#5555ff" opacity="1.00" d=" M 695.99 192.08 C 703.04 191.93 710.09 191.97 717.14 192.12 C 716.49 194.72 715.82 197.31 715.14 199.90 C 708.10 199.94 701.06 200.02 694.02 199.82 C 694.67 197.24 695.32 194.65 695.99 192.08 Z" />
<path fill="#5555ff" opacity="1.00" d=" M 383.85 194.97 C 385.29 194.90 386.73 194.83 388.17 194.77 C 387.39 195.93 386.61 197.08 385.84 198.24 C 386.87 198.47 387.90 198.70 388.94 198.93 C 389.28 205.31 389.28 211.71 388.94 218.09 C 382.06 219.84 374.93 219.41 367.91 219.78 C 368.04 221.63 368.18 223.48 368.34 225.34 C 369.42 224.40 370.51 223.46 371.59 222.51 C 372.20 222.45 373.43 222.32 374.04 222.26 C 373.74 223.53 373.43 224.81 373.13 226.09 C 370.75 226.02 368.37 225.95 366.00 225.85 C 366.32 223.33 365.44 220.16 367.38 218.16 C 373.94 216.91 380.83 218.73 387.25 216.44 C 387.23 212.28 387.52 208.12 387.17 203.97 C 386.93 200.72 385.17 197.88 383.85 194.97 Z" />
<path fill="#5555ff" opacity="1.00" d=" M 1034.47 209.51 C 1038.21 204.33 1041.45 198.74 1045.95 194.14 C 1048.39 196.70 1050.67 199.42 1052.71 202.32 C 1062.52 216.23 1072.01 230.35 1081.63 244.39 C 1093.32 261.00 1104.97 277.63 1117.05 293.96 C 1097.75 293.97 1078.45 294.19 1059.15 293.92 C 1050.69 280.74 1042.08 267.65 1033.42 254.59 C 1029.79 249.24 1026.45 243.68 1022.34 238.66 C 1010.42 257.03 998.77 275.57 986.94 293.99 C 968.49 293.94 950.03 294.21 931.59 293.84 C 933.24 291.12 935.05 288.51 936.96 285.97 C 948.41 270.58 958.55 254.28 969.52 238.56 C 973.73 232.39 977.81 226.11 982.28 220.12 C 984.25 221.66 986.18 223.26 987.95 225.04 C 994.85 232.07 1001.61 239.25 1009.03 245.74 C 1017.52 233.67 1025.65 221.35 1034.47 209.51 M 1039.38 213.38 C 1035.07 219.65 1030.46 225.71 1026.09 231.93 C 1033.49 241.66 1040.10 251.97 1046.75 262.23 C 1052.45 270.52 1058.19 278.80 1064.03 287.00 C 1077.10 287.13 1090.18 287.32 1103.26 286.90 C 1098.86 280.01 1093.53 273.79 1088.92 267.04 C 1074.90 246.10 1060.35 225.52 1046.49 204.47 C 1043.82 207.20 1041.52 210.24 1039.38 213.38 M 983.39 230.58 C 970.49 249.29 957.53 267.96 945.00 286.92 C 957.59 287.53 970.20 286.96 982.79 287.68 C 990.69 276.36 997.88 264.55 1006.11 253.45 C 997.94 246.41 991.37 237.79 983.39 230.58 Z" />
<path fill="#5555ff" opacity="1.00" d=" M 546.72 199.13 C 553.76 199.04 560.81 199.51 567.86 199.34 C 568.56 201.93 569.24 204.52 569.91 207.13 C 562.68 207.27 555.43 207.46 548.20 206.92 C 547.69 204.32 547.18 201.73 546.72 199.13 Z" />
<path fill="#5555ff" opacity="1.00" d=" M 114.90 201.18 C 115.68 201.01 117.25 200.68 118.04 200.51 C 120.39 203.35 123.26 205.67 126.28 207.75 C 133.53 212.77 139.05 220.58 140.41 229.39 C 141.84 238.18 139.60 247.36 134.80 254.81 C 128.49 264.45 118.42 271.41 107.31 274.32 C 99.83 276.23 92.02 277.07 84.32 276.39 C 81.45 276.25 78.09 275.29 75.99 277.89 C 75.91 276.77 75.82 275.66 75.73 274.54 C 83.08 274.41 90.44 275.77 97.76 274.56 C 110.24 273.09 122.57 267.47 130.64 257.63 C 137.29 249.35 140.77 238.16 138.30 227.65 C 136.46 219.20 130.37 212.38 123.44 207.55 C 121.24 205.95 118.54 205.43 115.94 204.91 C 115.58 203.66 115.24 202.42 114.90 201.18 Z" />
<path fill="#5555ff" opacity="1.00" d=" M 207.13 218.00 C 207.15 213.17 206.68 208.15 208.53 203.55 C 210.32 215.67 208.00 228.00 209.98 240.11 C 209.88 240.68 209.66 241.84 209.55 242.42 C 208.89 242.62 207.57 243.02 206.91 243.23 C 206.38 241.86 205.84 240.50 205.32 239.14 C 205.80 238.62 206.75 237.58 207.23 237.06 C 207.06 230.71 207.13 224.36 207.13 218.00 Z" />
<path fill="#5555ff" opacity="1.00" d=" M 378.00 204.22 C 379.29 204.18 380.59 204.16 381.90 204.13 C 381.75 205.24 381.61 206.35 381.48 207.46 C 380.85 207.60 379.60 207.86 378.97 207.99 C 378.64 206.73 378.31 205.47 378.00 204.22 Z" />
<path fill="#5555ff" opacity="1.00" d=" M 455.12 205.10 C 455.59 205.08 456.53 205.05 457.00 205.03 C 457.30 217.63 456.27 230.31 457.88 242.85 C 456.70 242.84 455.52 242.81 454.34 242.79 C 454.13 242.08 453.69 240.68 453.47 239.97 C 454.07 238.99 454.66 238.01 455.27 237.03 C 455.30 226.39 455.18 215.74 455.12 205.10 Z" />
<path fill="#5555ff" opacity="1.00" d=" M 691.96 205.07 C 699.08 205.09 706.20 205.14 713.33 205.26 C 712.93 207.91 712.51 210.55 712.10 213.20 C 704.87 213.41 697.64 213.49 690.42 213.18 C 690.88 210.46 691.41 207.77 691.96 205.07 Z" />
<path fill="#5555ff" opacity="1.00" d=" M 379.22 213.73 C 380.30 211.89 381.44 210.09 382.68 208.36 C 382.98 210.27 383.26 212.18 383.52 214.10 C 382.44 214.01 380.30 213.82 379.22 213.73 Z" />
<path fill="#5555ff" opacity="1.00" d=" M 444.05 209.56 C 445.33 208.52 446.95 210.75 445.64 211.70 C 444.34 212.73 442.72 210.52 444.05 209.56 Z" />
<path fill="#5555ff" opacity="1.00" d=" M 549.98 212.32 C 556.95 212.18 563.92 212.16 570.89 212.18 C 571.59 214.81 572.28 217.45 572.97 220.08 C 565.94 220.29 558.90 220.30 551.87 220.19 C 551.21 217.57 550.58 214.95 549.98 212.32 Z" />
<path fill="#5555ff" opacity="1.00" d=" M 123.09 213.98 C 124.38 213.50 125.67 213.02 126.97 212.56 C 126.98 213.42 126.99 215.14 127.00 216.00 C 129.04 218.71 131.15 221.45 132.38 224.65 C 136.36 235.04 134.17 247.46 126.81 255.82 C 117.54 267.26 102.31 271.73 88.08 271.91 C 82.13 271.69 76.24 270.67 70.43 269.45 C 64.87 268.30 59.79 265.68 54.50 263.72 C 54.06 264.40 53.17 265.77 52.73 266.45 C 54.32 267.82 55.94 269.37 58.14 269.60 C 62.47 270.36 66.69 271.62 70.71 273.40 C 72.25 273.23 73.79 273.06 75.34 272.89 C 75.29 273.49 75.21 274.69 75.16 275.29 C 69.39 273.99 63.63 272.65 57.88 271.26 C 55.84 270.68 53.59 270.20 52.04 268.62 C 51.14 266.37 51.79 263.83 53.33 262.03 C 56.22 262.04 58.75 263.59 61.34 264.66 C 66.84 267.13 72.80 268.33 78.71 269.30 C 89.91 271.26 101.70 269.74 112.08 265.14 C 120.66 261.22 127.79 253.99 131.16 245.13 C 133.58 238.52 133.67 230.86 130.52 224.47 C 128.65 220.58 125.72 217.35 123.09 213.98 Z" />
<path fill="#5555ff" opacity="1.00" d=" M 215.29 216.28 C 217.14 220.27 216.64 224.72 216.73 228.98 C 216.73 231.98 216.88 234.99 216.63 237.99 C 216.27 242.72 213.35 247.04 214.07 251.89 C 214.40 255.45 216.70 258.44 219.30 260.74 C 222.83 263.97 227.60 265.21 231.49 267.91 C 229.30 267.77 227.02 267.81 225.00 266.87 C 219.31 264.21 214.18 259.48 212.65 253.21 C 211.28 248.31 214.22 243.70 214.73 238.92 C 215.54 231.39 213.77 223.77 215.29 216.28 Z" />
<path fill="#5555ff" opacity="1.00" d=" M 463.20 217.12 C 463.59 217.12 464.37 217.12 464.76 217.13 C 464.83 223.78 465.28 230.43 465.07 237.08 C 465.04 242.49 461.24 247.29 462.14 252.78 C 462.83 257.75 466.47 261.86 470.82 264.12 C 473.74 265.62 476.82 266.87 479.47 268.86 C 470.16 268.63 461.31 261.08 460.24 251.74 C 459.53 246.56 463.38 242.18 463.30 237.05 C 463.44 230.41 463.04 223.76 463.20 217.12 Z" />
<path fill="#5555ff" opacity="1.00" d=" M 449.81 219.05 C 450.29 219.09 451.23 219.15 451.71 219.18 C 451.41 227.42 452.05 235.69 451.04 243.89 C 448.38 243.81 445.62 243.74 443.28 242.29 C 445.44 242.05 447.61 241.91 449.78 241.79 C 449.65 234.21 449.64 226.63 449.81 219.05 Z" />
<path fill="#5555ff" opacity="1.00" d=" M 603.54 219.45 C 607.60 217.95 611.26 222.88 609.81 226.61 C 608.78 230.23 603.78 231.43 601.10 228.89 C 598.29 226.01 599.60 220.54 603.54 219.45 M 601.86 222.84 C 601.90 223.67 601.99 225.34 602.04 226.17 C 602.68 226.80 603.33 227.44 603.99 228.08 C 605.41 227.54 606.84 226.99 608.28 226.44 C 607.41 224.52 606.47 222.64 605.45 220.80 C 604.24 221.48 603.05 222.16 601.86 222.84 Z" />
<path fill="#5555ff" opacity="1.00" d=" M 697.08 219.68 C 698.34 219.75 699.60 219.82 700.87 219.90 C 701.64 236.55 700.57 253.21 699.73 269.83 C 698.62 269.73 697.52 269.64 696.43 269.56 C 696.04 252.93 697.16 236.31 697.08 219.68 Z" />
<path fill="#5555ff" opacity="1.00" d=" M 380.57 221.76 L 382.26 221.74 C 382.33 229.41 382.54 237.07 382.31 244.73 C 384.57 244.78 386.83 244.84 389.10 244.93 C 389.12 247.23 389.11 249.53 389.09 251.83 C 386.61 252.20 384.14 252.59 381.67 253.01 C 380.73 249.74 385.31 251.37 387.11 250.82 C 387.08 249.44 387.04 248.07 387.02 246.71 C 385.02 247.19 383.02 247.69 381.03 248.18 C 380.60 239.38 380.48 230.57 380.57 221.76 Z" />
<path fill="#5555ff" opacity="1.00" d=" M 656.47 223.25 C 658.00 222.30 659.97 222.50 661.57 223.20 C 663.20 225.00 663.65 228.04 661.94 229.95 C 660.10 231.56 656.99 231.27 655.53 229.30 C 654.03 227.51 654.35 224.43 656.47 223.25 M 658.11 224.17 C 657.42 225.08 656.75 226.00 656.09 226.92 C 656.33 227.40 656.83 228.38 657.08 228.86 C 658.44 228.90 659.82 228.94 661.20 228.98 C 661.00 227.44 660.80 225.90 660.61 224.37 C 659.98 224.32 658.73 224.22 658.11 224.17 Z" />
<path fill="#5555ff" opacity="1.00" d=" M 375.35 223.53 C 376.91 228.88 376.41 234.50 376.43 239.99 C 376.42 245.00 376.15 250.00 375.77 254.99 C 375.40 254.79 374.67 254.37 374.30 254.16 C 376.02 244.02 374.52 233.72 375.35 223.53 Z" />
<path fill="#5555ff" opacity="1.00" d=" M 553.87 225.38 C 560.78 225.38 567.68 225.28 574.58 225.28 C 575.03 227.82 575.52 230.36 576.02 232.90 C 569.06 232.97 562.11 233.34 555.15 233.14 C 554.70 230.55 554.26 227.97 553.87 225.38 Z" />
<path fill="#5555ff" opacity="1.00" d=" M 735.77 224.88 C 737.57 225.15 739.39 225.44 741.21 225.74 C 741.00 227.31 740.81 228.89 740.62 230.47 C 738.85 230.01 736.84 229.94 735.40 228.69 C 735.44 227.41 735.60 226.14 735.77 224.88 Z" />
<path fill="#5555ff" opacity="1.00" d=" M 313.03 233.04 C 318.55 227.70 326.53 226.21 333.94 225.98 C 342.69 225.81 351.45 225.74 360.20 226.00 C 360.86 232.30 361.49 238.67 360.87 245.01 C 360.29 251.27 356.60 256.99 351.48 260.55 C 343.94 265.84 334.31 267.62 325.26 266.52 C 318.71 265.58 312.13 261.88 309.34 255.65 C 306.04 248.33 306.92 238.67 313.03 233.04 M 317.75 236.75 C 313.58 240.41 312.28 246.72 314.21 251.86 C 315.06 254.01 316.77 255.64 318.30 257.33 C 318.45 255.23 318.60 253.14 318.74 251.06 C 319.34 251.05 320.55 251.03 321.15 251.02 C 320.96 253.51 320.74 256.01 320.51 258.50 C 327.44 261.10 335.03 260.84 342.08 258.84 C 341.64 258.57 340.76 258.04 340.32 257.77 C 340.31 253.22 340.29 248.67 340.27 244.13 C 340.90 244.11 342.17 244.06 342.80 244.04 C 342.82 248.69 342.85 253.34 343.08 257.98 C 343.85 257.69 344.61 257.41 345.38 257.13 C 344.11 250.16 344.57 243.06 344.69 236.03 C 345.32 236.02 346.58 236.00 347.21 235.99 C 347.30 242.48 347.10 248.98 347.44 255.47 C 350.09 253.06 352.74 250.39 353.83 246.89 C 355.31 242.13 354.75 237.07 354.71 232.17 C 347.15 232.14 339.59 232.05 332.04 232.22 C 327.02 232.40 321.60 233.23 317.75 236.75 Z" />
<path fill="#5555ff" opacity="1.00" d=" M 1052.28 229.48 C 1053.49 230.30 1054.82 231.01 1055.87 232.07 C 1056.35 233.41 1056.58 234.83 1056.90 236.22 C 1055.76 234.86 1054.67 233.47 1053.62 232.05 C 1052.63 232.27 1051.65 232.50 1050.69 232.73 C 1051.20 231.64 1051.73 230.56 1052.28 229.48 Z" />
<path fill="#5555ff" opacity="1.00" d=" M 688.12 231.68 C 689.43 231.70 690.74 231.73 692.07 231.77 C 693.48 244.26 692.74 256.83 693.28 269.36 C 691.74 269.33 690.21 269.31 688.70 269.28 C 689.22 256.73 687.98 244.22 688.12 231.68 Z" />
<path fill="#5555ff" opacity="1.00" d=" M 733.19 233.04 C 734.92 232.71 736.65 232.40 738.40 232.09 C 738.11 234.45 737.73 236.81 737.28 239.15 C 734.90 237.83 733.33 235.81 733.19 233.04 Z" />
<path fill="#5555ff" opacity="1.00" d=" M 1046.69 233.48 C 1047.48 233.37 1049.07 233.13 1049.86 233.02 C 1049.85 234.25 1049.86 235.49 1049.88 236.74 C 1051.73 236.98 1053.59 237.23 1055.46 237.53 C 1053.69 238.20 1051.57 239.87 1049.80 238.32 C 1048.42 236.95 1047.62 235.14 1046.69 233.48 Z" />
<path fill="#5555ff" opacity="1.00" d=" M 654.14 236.06 C 659.80 235.37 665.51 235.08 671.21 235.07 C 671.22 236.44 671.24 237.82 671.26 239.20 C 665.59 239.69 659.91 239.84 654.23 239.79 C 654.19 238.54 654.16 237.30 654.14 236.06 Z" />
<path fill="#5555ff" opacity="1.00" d=" M 334.09 242.07 C 336.04 239.90 337.98 237.73 339.96 235.58 C 340.48 235.89 341.54 236.52 342.07 236.83 C 339.37 239.05 336.85 241.49 334.52 244.11 C 332.74 243.17 330.96 242.22 329.19 241.26 C 326.74 243.76 324.51 246.58 321.50 248.43 C 320.30 248.47 319.11 248.23 317.93 248.05 C 321.98 245.63 325.66 242.69 328.97 239.34 C 330.68 240.24 332.38 241.15 334.09 242.07 Z" />
<path fill="#5555ff" opacity="1.00" d=" M 594.00 236.82 C 599.34 236.80 604.69 236.92 610.03 237.19 C 606.36 251.23 602.58 265.24 597.97 279.01 C 587.56 279.73 577.12 279.18 566.71 279.53 C 564.50 272.43 563.19 265.10 561.13 257.97 C 559.59 252.54 558.44 247.01 557.90 241.39 C 564.61 241.38 571.32 241.23 578.03 241.15 C 578.11 242.74 578.20 244.33 578.30 245.92 C 573.19 245.90 568.08 245.89 562.97 245.99 C 565.19 255.60 567.72 265.13 570.20 274.67 C 578.38 274.67 586.57 274.54 594.75 274.62 C 598.25 263.57 601.47 252.44 604.98 241.40 C 602.36 241.38 599.75 241.36 597.15 241.34 C 594.27 250.42 592.63 259.83 589.99 268.97 C 584.98 269.30 579.96 269.34 574.95 269.12 C 573.48 263.81 572.24 258.42 571.57 252.95 C 572.86 253.14 574.15 253.34 575.45 253.55 C 576.21 257.28 577.12 260.99 578.09 264.68 C 580.94 264.66 583.80 264.65 586.67 264.64 C 589.11 255.37 591.00 245.94 594.00 236.82 Z" />
<path fill="#5555ff" opacity="1.00" d=" M 731.98 239.73 C 733.37 239.85 734.77 239.97 736.18 240.09 C 736.15 241.78 736.11 243.48 736.07 245.17 C 734.54 244.57 733.02 243.96 731.51 243.35 C 731.63 242.44 731.87 240.64 731.98 239.73 Z" />
<path fill="#5555ff" opacity="1.00" d=" M 1039.67 243.20 C 1040.53 241.81 1041.63 240.59 1042.69 239.34 C 1043.53 239.51 1045.20 239.86 1046.03 240.03 C 1047.02 241.65 1048.02 243.27 1049.01 244.89 C 1047.35 246.00 1045.76 247.25 1043.91 248.01 C 1041.42 248.15 1039.09 245.68 1039.67 243.20 M 1043.25 241.11 C 1042.31 241.87 1041.38 242.65 1040.47 243.42 C 1041.79 245.25 1043.77 246.15 1045.97 246.46 C 1045.82 244.79 1045.68 243.12 1045.52 241.45 C 1044.95 241.36 1043.82 241.19 1043.25 241.11 Z" />
<path fill="#5555ff" opacity="1.00" d=" M 981.68 244.18 C 982.60 242.66 983.79 241.33 984.92 239.96 C 986.20 241.55 987.48 243.16 988.74 244.79 C 987.35 246.06 985.96 247.33 984.60 248.61 C 983.49 247.25 981.28 246.23 981.68 244.18 M 984.11 244.24 L 983.71 244.96 L 984.13 245.67 L 984.96 245.66 L 985.36 244.94 L 984.94 244.23 L 984.11 244.24 Z" />
<path fill="#5555ff" opacity="1.00" d=" M 1058.22 245.19 C 1058.62 243.29 1060.28 241.93 1062.01 241.19 C 1064.12 241.86 1066.67 243.40 1066.46 245.96 C 1066.41 248.53 1063.53 249.99 1061.24 249.72 C 1059.57 248.90 1057.83 247.22 1058.22 245.19 M 1059.88 245.23 C 1060.25 246.10 1060.63 246.96 1061.03 247.83 C 1061.92 247.85 1063.69 247.88 1064.58 247.90 C 1064.20 246.36 1063.82 244.82 1063.44 243.28 C 1062.24 243.93 1061.05 244.58 1059.88 245.23 Z" />
<path fill="#5555ff" opacity="1.00" d=" M 197.78 245.80 C 198.21 245.61 199.06 245.23 199.49 245.05 C 199.83 250.99 200.44 257.16 203.51 262.41 C 207.32 269.54 215.01 273.59 222.64 275.34 C 225.46 276.09 228.38 275.59 231.19 275.03 C 231.71 275.26 232.77 275.73 233.30 275.96 C 232.54 276.71 231.78 277.47 231.03 278.23 C 222.36 277.47 213.15 275.58 206.65 269.36 C 200.16 263.41 197.64 254.38 197.78 245.80 Z" />
<path fill="#5555ff" opacity="1.00" d=" M 335.96 245.01 C 336.56 245.00 337.76 244.98 338.36 244.97 C 338.41 248.87 338.90 252.85 338.11 256.71 C 337.65 257.26 336.74 258.36 336.28 258.91 C 335.71 254.29 335.84 249.64 335.96 245.01 Z" />
<path fill="#5555ff" opacity="1.00" d=" M 730.25 244.96 C 731.90 245.55 733.55 246.14 735.20 246.75 C 735.07 247.54 734.81 249.13 734.69 249.93 C 733.26 249.77 731.85 249.62 730.45 249.46 C 730.36 247.96 730.30 246.46 730.25 244.96 Z" />
<path fill="#5555ff" opacity="1.00" d=" M 207.41 246.10 C 207.82 246.08 208.64 246.04 209.05 246.02 C 209.16 247.96 209.27 249.90 209.39 251.85 C 210.27 252.54 211.16 253.22 212.05 253.91 C 212.19 255.44 212.33 256.98 212.47 258.52 C 210.65 258.48 208.16 259.83 207.06 257.74 C 206.59 253.87 207.23 249.97 207.41 246.10 Z" />
<path fill="#5555ff" opacity="1.00" d=" M 331.34 246.24 C 331.97 246.23 333.23 246.21 333.87 246.19 C 334.03 250.15 334.03 254.12 333.96 258.08 C 333.30 258.03 331.97 257.93 331.31 257.88 C 331.33 254.00 331.33 250.12 331.34 246.24 Z" />
<path fill="#5555ff" opacity="1.00" d=" M 445.08 246.23 C 445.50 246.20 446.34 246.14 446.76 246.11 C 447.18 253.34 448.58 260.93 453.34 266.65 C 458.44 272.64 466.31 275.31 473.87 276.44 C 475.45 275.84 477.04 275.26 478.64 274.70 C 478.64 276.11 478.64 277.51 478.65 278.93 C 470.22 277.69 461.13 276.33 454.52 270.47 C 447.98 264.28 445.04 255.08 445.08 246.23 Z" />
<path fill="#5555ff" opacity="1.00" d=" M 454.99 246.96 C 455.42 246.74 456.26 246.30 456.68 246.08 C 456.74 248.39 456.81 250.70 456.89 253.01 C 457.94 253.35 458.99 253.70 460.06 254.04 C 460.00 256.05 459.94 258.06 459.88 260.07 C 462.26 262.70 464.63 265.40 467.62 267.37 C 470.10 269.00 472.62 270.60 474.66 272.79 C 467.69 271.26 462.32 266.07 458.79 260.09 C 457.41 259.45 456.03 258.83 454.66 258.20 C 454.75 254.45 454.88 250.71 454.99 246.96 Z" />
<path fill="#5555ff" opacity="1.00" d=" M 41.05 247.97 C 42.77 246.00 45.40 247.71 46.88 249.09 C 48.92 251.03 51.22 253.81 50.20 256.83 C 48.70 261.19 45.54 264.68 42.82 268.32 C 38.90 266.86 35.31 264.66 32.15 261.93 C 34.80 257.12 37.13 251.93 41.05 247.97 M 34.61 261.73 C 37.12 263.13 39.46 265.66 42.53 265.54 C 45.23 262.54 47.78 259.09 48.78 255.12 C 47.93 252.20 45.15 250.50 43.02 248.57 C 39.51 252.45 36.61 256.88 34.61 261.73 Z" />
<path fill="#5555ff" opacity="1.00" d=" M 326.91 247.08 C 327.61 247.10 329.03 247.16 329.73 247.19 C 329.70 250.74 329.69 254.30 329.71 257.86 C 329.04 257.92 327.69 258.03 327.01 258.08 C 326.99 254.41 326.96 250.74 326.91 247.08 Z" />
<path fill="#5555ff" opacity="1.00" d=" M 679.77 246.65 C 681.43 246.68 683.10 246.72 684.78 246.77 C 684.55 254.16 684.58 261.55 684.77 268.93 C 683.11 268.98 681.46 269.02 679.82 269.07 C 679.55 261.60 679.57 254.12 679.77 246.65 Z" />
<path fill="#5555ff" opacity="1.00" d=" M 671.00 248.23 C 672.40 248.22 673.81 248.20 675.22 248.19 C 675.48 255.17 675.28 262.15 675.01 269.13 C 673.63 269.15 672.26 269.18 670.90 269.20 C 670.71 262.21 670.78 255.22 671.00 248.23 Z" />
<path fill="#5555ff" opacity="1.00" d=" M 991.36 248.31 C 992.71 246.80 994.96 249.18 993.36 250.44 C 991.98 251.91 989.73 249.58 991.36 248.31 Z" />
<path fill="#5555ff" opacity="1.00" d=" M 659.05 250.19 C 661.43 250.14 663.82 250.09 666.22 250.05 C 666.54 256.40 666.44 262.77 666.26 269.13 C 663.86 269.08 661.48 269.02 659.10 268.97 C 659.09 262.71 659.02 256.45 659.05 250.19 Z" />
<path fill="#5555ff" opacity="1.00" d=" M 322.70 250.99 C 323.35 250.99 324.66 250.99 325.31 250.99 C 325.29 253.30 325.28 255.62 325.27 257.94 C 324.66 257.94 323.44 257.94 322.83 257.93 C 322.78 255.62 322.74 253.31 322.70 250.99 Z" />
<path fill="#5555ff" opacity="1.00" d=" M 728.98 250.47 C 730.69 251.27 732.40 252.09 734.11 252.92 C 733.62 254.25 733.14 255.57 732.66 256.90 C 731.06 256.53 729.45 256.16 727.86 255.80 C 728.20 254.01 728.58 252.24 728.98 250.47 Z" />
<path fill="#5555ff" opacity="1.00" d=" M 1047.09 255.14 C 1048.74 253.61 1050.41 252.11 1052.08 250.59 C 1053.38 251.51 1054.74 252.38 1055.94 253.48 C 1057.66 256.24 1054.74 259.35 1052.01 259.74 C 1049.62 259.30 1048.54 256.78 1047.09 255.14 M 1050.19 254.16 C 1050.27 255.31 1050.36 256.47 1050.47 257.63 C 1051.84 257.61 1053.23 257.60 1054.63 257.59 C 1054.37 256.12 1054.13 254.66 1053.89 253.21 C 1052.64 253.52 1051.41 253.84 1050.19 254.16 Z" />
<path fill="#5555ff" opacity="1.00" d=" M 981.17 252.27 C 981.67 252.28 982.66 252.29 983.15 252.30 C 982.72 254.39 982.27 256.49 981.80 258.58 C 979.93 259.00 978.08 259.44 976.23 259.87 C 975.06 257.49 973.53 254.85 975.34 252.37 C 975.85 254.40 976.32 256.44 976.77 258.49 C 978.17 258.39 979.59 258.30 981.02 258.22 C 981.28 257.58 981.81 256.30 982.07 255.66 C 981.76 254.53 981.46 253.40 981.17 252.27 Z" />
<path fill="#5555ff" opacity="1.00" d=" M 42.24 252.78 C 43.58 254.08 44.90 255.40 46.21 256.73 C 45.20 257.34 44.19 257.95 43.18 258.56 C 43.40 257.28 43.61 256.02 43.83 254.75 C 42.47 255.83 41.13 256.93 39.76 258.01 C 40.56 256.25 41.40 254.51 42.24 252.78 Z" />
<path fill="#5555ff" opacity="1.00" d=" M 989.28 253.29 C 989.91 253.30 991.16 253.31 991.79 253.32 C 991.80 253.91 991.83 255.10 991.85 255.70 C 991.20 255.70 989.90 255.71 989.25 255.72 C 989.26 255.11 989.28 253.90 989.28 253.29 Z" />
<path fill="#5555ff" opacity="1.00" d=" M 1065.57 256.17 C 1067.67 254.75 1069.75 252.03 1072.62 253.10 C 1073.75 254.66 1074.58 256.41 1075.47 258.12 C 1073.26 258.96 1070.88 261.02 1068.46 259.84 C 1067.35 258.73 1066.48 257.42 1065.57 256.17 M 1068.35 255.61 C 1068.44 256.58 1068.53 257.56 1068.64 258.54 C 1070.10 258.44 1071.57 258.33 1073.05 258.23 C 1072.71 256.98 1072.38 255.74 1072.06 254.50 C 1070.81 254.86 1069.57 255.23 1068.35 255.61 Z" />
<path fill="#5555ff" opacity="1.00" d=" M 381.88 253.67 C 384.12 254.02 386.36 254.35 388.61 254.65 C 388.71 256.36 388.81 258.07 388.91 259.79 C 387.31 259.95 385.71 260.11 384.11 260.28 C 383.99 260.86 383.75 262.02 383.64 262.60 C 382.95 262.69 381.58 262.86 380.89 262.95 C 380.92 261.43 380.96 259.91 381.00 258.39 C 383.27 258.23 385.54 258.02 387.81 257.73 C 385.83 256.52 383.42 256.20 381.48 255.00 L 381.88 253.67 Z" />
<path fill="#5555ff" opacity="1.00" d=" M 373.03 257.17 C 374.40 257.18 375.79 257.20 377.17 257.22 C 377.17 259.13 377.17 261.04 377.15 262.96 C 375.68 262.67 374.22 262.38 372.76 262.09 C 372.84 260.45 372.93 258.81 373.03 257.17 Z" />
<path fill="#5555ff" opacity="1.00" d=" M 726.96 258.44 C 728.13 258.82 729.30 259.25 730.46 259.72 C 731.06 261.13 731.34 262.66 731.71 264.15 C 729.75 264.03 727.81 263.88 725.88 263.72 C 726.22 261.96 726.58 260.19 726.96 258.44 Z" />
<path fill="#5555ff" opacity="1.00" d=" M 211.66 259.76 C 214.78 262.14 217.47 265.05 220.75 267.22 C 222.98 268.70 225.21 270.19 227.21 271.99 C 220.50 270.68 214.43 266.04 211.66 259.76 Z" />
<path fill="#5555ff" opacity="1.00" d=" M 293.25 259.94 C 295.40 258.93 297.32 260.82 299.18 261.65 C 299.17 263.37 299.18 265.10 299.21 266.83 C 303.62 269.90 308.00 273.23 313.18 274.89 C 319.17 277.04 325.58 277.10 331.86 277.23 C 331.84 277.65 331.81 278.48 331.79 278.90 C 323.81 278.98 315.59 278.20 308.33 274.65 C 305.25 273.26 302.70 271.01 300.01 269.04 C 297.88 267.45 295.16 267.12 292.80 266.01 C 290.87 264.60 291.05 261.01 293.25 259.94 Z" />
<path fill="#5555ff" opacity="1.00" d=" M 481.54 263.89 C 487.02 263.44 492.50 262.97 497.93 262.05 C 498.33 263.70 498.73 265.36 499.13 267.03 C 497.91 267.43 496.70 267.82 495.49 268.22 C 495.26 269.70 495.02 271.18 494.78 272.66 C 494.44 270.91 494.13 269.15 493.85 267.40 C 494.26 266.72 495.08 265.37 495.49 264.69 C 491.28 264.78 487.07 265.01 482.88 265.36 C 483.20 267.24 483.54 269.11 483.90 270.99 L 482.14 271.52 C 481.89 268.98 481.69 266.43 481.54 263.89 Z" />
<path fill="#5555ff" opacity="1.00" d=" M 530.02 262.98 C 531.99 262.99 533.97 263.00 535.96 263.01 C 535.88 264.37 535.81 265.74 535.75 267.11 C 533.73 267.31 531.71 267.46 529.70 267.56 C 529.79 266.03 529.90 264.50 530.02 262.98 Z" />
<path fill="#5555ff" opacity="1.00" d=" M 1057.63 265.70 C 1058.70 263.82 1061.23 261.71 1063.34 263.44 C 1064.47 265.03 1064.72 267.04 1065.32 268.86 C 1063.44 269.58 1061.56 271.68 1059.43 270.73 C 1058.03 269.57 1056.25 267.53 1057.63 265.70 M 1058.71 267.75 C 1059.74 268.56 1060.78 269.38 1061.84 270.21 C 1062.68 268.12 1063.06 265.80 1061.36 264.01 C 1060.44 265.24 1059.57 266.49 1058.71 267.75 Z" />
<path fill="#5555ff" opacity="1.00" d=" M 1078.40 264.16 C 1081.63 262.96 1084.26 266.72 1083.84 269.65 C 1082.10 271.28 1079.52 272.04 1077.26 271.09 C 1074.68 269.36 1075.50 265.03 1078.40 264.16 M 1078.32 267.30 C 1078.33 267.97 1078.33 269.30 1078.34 269.96 C 1079.57 269.58 1080.82 269.20 1082.09 268.81 C 1081.44 267.84 1080.80 266.88 1080.17 265.92 C 1079.71 266.26 1078.79 266.95 1078.32 267.30 Z" />
<path fill="#5555ff" opacity="1.00" d=" M 971.16 265.44 C 972.54 265.00 973.02 265.47 972.60 266.88 C 971.18 267.33 970.70 266.85 971.16 265.44 Z" />
<path fill="#5555ff" opacity="1.00" d=" M 983.04 267.90 C 984.54 266.88 986.06 265.86 987.59 264.85 C 987.68 265.43 987.86 266.58 987.95 267.15 C 986.30 267.40 984.66 267.65 983.04 267.90 Z" />
<path fill="#5555ff" opacity="1.00" d=" M 377.43 267.40 C 380.90 266.67 385.07 268.66 385.93 272.27 C 386.77 275.14 385.69 278.55 382.98 280.01 C 379.55 282.22 374.52 280.35 373.05 276.63 C 371.56 273.09 373.65 268.36 377.43 267.40 M 378.42 273.22 C 377.26 274.65 379.74 276.40 380.74 274.88 C 381.90 273.43 379.42 271.69 378.42 273.22 Z" />
<path fill="#5555ff" opacity="1.00" d=" M 486.06 267.82 C 487.61 267.86 489.17 267.91 490.73 267.96 C 490.67 269.74 492.71 272.56 489.93 272.99 C 489.82 271.65 489.72 270.32 489.62 268.99 C 487.97 269.56 486.34 270.21 484.59 270.33 C 484.96 269.70 485.70 268.45 486.06 267.82 Z" />
<path fill="#5555ff" opacity="1.00" d=" M 966.32 267.98 L 967.03 267.57 L 967.75 267.98 L 967.76 268.80 L 967.04 269.22 L 966.33 268.81 L 966.32 267.98 Z" />
<path fill="#5555ff" opacity="1.00" d=" M 497.26 268.23 C 498.03 269.71 498.79 271.20 499.55 272.69 C 498.75 272.82 497.15 273.09 496.35 273.23 C 496.64 271.56 496.94 269.89 497.26 268.23 Z" />
<path fill="#5555ff" opacity="1.00" d=" M 343.02 270.74 C 343.76 270.72 345.25 270.68 346.00 270.67 C 345.98 271.64 345.95 273.60 345.94 274.57 C 344.52 274.08 343.11 273.59 341.70 273.10 C 342.03 272.51 342.69 271.33 343.02 270.74 Z" />
<path fill="#5555ff" opacity="1.00" d=" M 336.46 271.69 C 338.45 272.34 340.44 273.05 342.39 273.84 C 340.53 275.37 338.31 276.24 335.97 276.70 C 336.12 275.03 336.28 273.36 336.46 271.69 Z" />
<path fill="#5555ff" opacity="1.00" d=" M 487.25 272.15 L 487.71 272.15 L 487.72 272.62 L 487.25 272.62 L 487.25 272.15 Z" />
<path fill="#5555ff" opacity="1.00" d=" M 531.42 271.96 C 533.58 271.83 535.75 271.74 537.92 271.68 C 538.01 272.64 538.18 274.56 538.27 275.52 C 536.66 275.97 535.06 276.48 533.41 276.71 C 531.76 275.70 531.92 273.58 531.42 271.96 Z" />
<path fill="#5555ff" opacity="1.00" d=" M 324.09 275.15 C 325.95 274.72 327.84 274.33 329.73 273.96 C 329.76 274.51 329.81 275.61 329.84 276.16 C 327.92 275.85 325.99 275.52 324.09 275.15 Z" />
<path fill="#5555ff" opacity="1.00" d=" M 663.49 274.46 C 672.94 274.23 682.39 274.38 691.84 274.39 C 692.22 275.29 692.59 276.19 692.98 277.10 C 683.02 277.39 673.06 277.65 663.10 277.77 C 663.22 276.66 663.35 275.56 663.49 274.46 Z" />
<path fill="#5555ff" opacity="1.00" d=" M 1071.21 275.55 C 1072.62 276.64 1074.00 277.77 1075.39 278.91 C 1073.89 280.88 1072.37 282.82 1070.83 284.76 C 1068.86 283.73 1067.25 282.23 1066.23 280.25 C 1067.49 280.87 1068.76 281.52 1070.03 282.19 C 1071.05 281.75 1072.08 281.31 1073.12 280.88 C 1072.47 279.10 1071.82 277.33 1071.21 275.55 Z" />
<path fill="#5555ff" opacity="1.00" d=" M 234.14 277.30 C 235.78 277.30 235.64 280.05 234.05 280.01 C 232.39 279.99 232.54 277.26 234.14 277.30 Z" />
<path fill="#5555ff" opacity="1.00" d=" M 956.17 276.81 C 956.99 276.85 958.64 276.94 959.46 276.98 C 958.69 277.76 957.93 278.55 957.19 279.34 C 957.20 280.04 957.24 281.44 957.25 282.14 C 959.24 281.88 961.23 281.62 963.22 281.32 C 962.40 280.19 961.58 279.08 960.78 277.96 C 961.81 277.61 962.84 277.26 963.90 276.92 C 964.00 279.04 964.10 281.17 964.22 283.30 C 962.56 283.85 960.94 284.65 959.18 284.72 C 957.15 284.32 955.81 282.52 954.28 281.29 C 954.90 279.80 955.53 278.30 956.17 276.81 Z" />
<path fill="#5555ff" opacity="1.00" d=" M 1085.45 277.21 C 1087.46 276.49 1090.63 276.09 1091.71 278.46 C 1092.41 279.72 1092.16 281.25 1091.81 282.59 C 1089.64 284.07 1085.88 285.29 1084.06 282.72 C 1083.67 280.78 1084.11 278.69 1085.45 277.21 M 1084.81 280.76 C 1085.85 281.29 1086.90 281.82 1087.96 282.35 C 1089.06 281.81 1090.18 281.26 1091.31 280.72 C 1090.21 279.53 1089.11 278.35 1088.01 277.18 C 1086.92 278.36 1085.86 279.55 1084.81 280.76 Z" />
<path fill="#5555ff" opacity="1.00" d=" M 534.17 280.09 C 536.02 280.09 537.88 280.11 539.74 280.15 C 539.84 281.74 539.95 283.33 540.06 284.93 C 538.05 285.03 536.06 285.11 534.06 285.17 C 534.08 283.47 534.11 281.78 534.17 280.09 Z" />
<path fill="#5555ff" opacity="1.00" d=" M 973.51 281.27 C 974.19 280.27 976.37 280.30 976.46 281.76 C 976.32 283.77 972.29 283.32 973.51 281.27 Z" />
<path fill="#5555ff" opacity="1.00" d=" M 535.94 288.87 C 537.89 288.84 539.85 288.82 541.82 288.84 C 541.71 290.40 541.62 291.97 541.52 293.54 C 540.07 293.63 538.63 293.72 537.20 293.81 C 536.77 292.17 536.35 290.52 535.94 288.87 Z" />
<path fill="#5555ff" opacity="1.00" d=" M 538.07 298.16 C 539.94 298.03 541.82 297.91 543.70 297.81 C 543.86 299.32 544.03 300.84 544.21 302.36 C 542.53 302.66 540.86 302.95 539.19 303.23 C 538.80 301.54 538.43 299.85 538.07 298.16 Z" />
<path fill="#5555ff" opacity="1.00" d=" M 542.29 307.16 C 543.78 307.30 545.28 307.45 546.78 307.61 C 546.64 309.14 546.54 310.69 546.20 312.20 C 544.96 312.70 543.68 313.06 542.41 313.45 C 542.15 312.54 541.63 310.74 541.37 309.83 C 541.60 309.17 542.06 307.83 542.29 307.16 Z" />
<path fill="#5555ff" opacity="1.00" d=" M 580.87 307.99 C 581.96 307.60 583.06 307.22 584.16 306.85 C 584.65 308.91 585.09 310.98 585.52 313.06 C 583.94 313.11 582.36 313.17 580.80 313.22 C 580.81 311.47 580.84 309.73 580.87 307.99 Z" />
<path fill="#5555ff" opacity="1.00" d=" M 588.65 313.18 C 588.95 310.75 588.94 306.24 592.62 307.26 C 594.28 308.69 593.99 311.10 594.47 313.05 C 592.52 313.11 590.58 313.16 588.65 313.18 Z" />
<path fill="#5555ff" opacity="1.00" d=" M 550.53 307.74 C 551.51 307.77 553.45 307.81 554.43 307.84 C 554.42 309.60 554.41 311.36 554.39 313.13 C 553.43 313.16 551.52 313.21 550.56 313.23 C 550.53 311.40 550.52 309.57 550.53 307.74 Z" />
<path fill="#5555ff" opacity="1.00" d=" M 558.13 307.32 C 559.72 307.90 561.35 308.45 562.83 309.32 C 562.79 310.52 562.88 312.02 561.69 312.76 C 560.42 313.12 559.14 313.43 557.86 313.68 C 557.91 311.56 558.00 309.43 558.13 307.32 Z" />
<path fill="#5555ff" opacity="1.00" d=" M 566.02 307.44 C 567.22 307.67 568.42 307.95 569.62 308.28 C 570.56 309.57 570.74 311.22 571.24 312.70 C 569.43 312.95 567.62 313.19 565.82 313.43 C 565.87 311.43 565.93 309.43 566.02 307.44 Z" />
<path fill="#5555ff" opacity="1.00" d=" M 573.76 307.79 C 574.67 307.82 576.50 307.87 577.41 307.90 C 577.34 309.66 577.27 311.42 577.20 313.18 C 575.83 313.05 574.46 312.92 573.10 312.79 C 573.31 311.12 573.53 309.45 573.76 307.79 Z" />
</g>
</svg>
